<svg width="177" height="87" viewBox="0 0 177 87" fill="none" xmlns="http://www.w3.org/2000/svg">
<path d="M0 20C0 8.9543 8.95431 0 20 0H177V87H20C8.95431 87 0 78.0457 0 67V20Z" fill="white"/>
<path d="M107.454 67.7399C115.068 61.1243 118.451 50.0984 116.421 39.5449H86.1377V51.201H103.394C102.717 54.9813 100.349 58.1316 96.9652 60.1792L107.454 67.7399Z" fill="#4285F4"/>
<path d="M57.377 58.4467C59.6025 62.5285 62.7943 66.0866 66.7116 68.853C70.629 71.6193 75.1697 73.5215 79.9915 74.4164C84.8134 75.3112 89.7904 75.1752 94.5476 74.0187C99.3048 72.8622 103.718 70.7154 107.454 67.74L96.9652 60.1794C87.9986 65.6923 73.1107 63.6447 68.0353 50.7285L57.377 58.4467Z" fill="#34A853"/>
<path d="M68.0354 50.7284C66.6819 46.7906 66.6819 43.1677 68.0354 39.2299L57.377 31.5117C53.4858 38.7574 52.3016 48.9958 57.377 58.4466L68.0354 50.7284Z" fill="#FBBC02"/>
<path d="M68.0353 39.2302C71.7573 28.3617 87.6602 22.0611 98.3186 31.3545L107.624 22.8487C94.4275 11.0352 68.712 11.5077 57.377 31.512L68.0353 39.2302Z" fill="#EA4335"/>
</svg>
