<svg width="127" height="44" viewBox="0 0 127 44" fill="none" xmlns="http://www.w3.org/2000/svg">
<path d="M12.723 33L7.18585 11.4009H7.01007C7.08331 12.3677 7.14191 13.3052 7.18585 14.2134C7.24445 15.1069 7.28839 15.9565 7.31769 16.7622C7.34698 17.5679 7.36163 18.3296 7.36163 19.0474V33H0.22052V0.875977H10.7015L15.6893 20.168H15.8211L20.8309 0.875977H31.2239V33H23.8851V18.9155C23.8851 18.1099 23.8997 17.3115 23.929 16.5205C23.9583 15.7148 23.9949 14.8872 24.0389 14.0376C24.0828 13.188 24.1341 12.3091 24.1927 11.4009H24.0169L18.3919 33H12.723ZM60.096 16.894C60.096 19.5894 59.8323 21.9697 59.305 24.0352C58.7923 26.0859 58.0159 27.8145 56.9759 29.2207C55.9505 30.6123 54.6761 31.667 53.1526 32.3848C51.6439 33.0879 49.8934 33.4395 47.9012 33.4395C45.9236 33.4395 44.1732 33.0806 42.6497 32.3628C41.1263 31.645 39.8445 30.5903 38.8045 29.1987C37.7645 27.7925 36.9808 26.0566 36.4534 23.9912C35.9261 21.9258 35.6624 19.5454 35.6624 16.8501C35.6624 13.2759 36.1238 10.2656 37.0467 7.81934C37.9842 5.37305 39.3611 3.52002 41.1776 2.26025C43.0086 1.00049 45.2498 0.370605 47.9012 0.370605C50.5672 0.370605 52.8011 0.993164 54.6028 2.23828C56.4193 3.4834 57.7889 5.33643 58.7117 7.79736C59.6346 10.2437 60.096 13.2759 60.096 16.894ZM43.6165 16.894C43.6165 19.0767 43.7776 20.9004 44.0999 22.3652C44.4222 23.8301 44.8983 24.9287 45.5281 25.6611C46.1727 26.3789 46.9637 26.7378 47.9012 26.7378C48.868 26.7378 49.659 26.3862 50.2742 25.6831C50.9041 24.98 51.3655 23.9033 51.6585 22.4531C51.9661 20.9883 52.1199 19.1353 52.1199 16.894C52.1199 13.4956 51.7684 10.9907 51.0652 9.37939C50.3768 7.75342 49.3221 6.94043 47.9012 6.94043C46.9637 6.94043 46.1727 7.31396 45.5281 8.06104C44.8983 8.79346 44.4222 9.89941 44.0999 11.3789C43.7776 12.8438 43.6165 14.6821 43.6165 16.894ZM62.8426 43.0854C62.1981 43.0854 61.5609 43.0488 60.931 42.9756C60.3011 42.9023 59.6932 42.7852 59.1072 42.624V36.1421C59.4734 36.2886 59.8616 36.3984 60.2718 36.4717C60.6819 36.5596 61.1214 36.6035 61.5901 36.6035C62.3665 36.6035 62.9744 36.4277 63.4139 36.0762C63.868 35.7393 64.1829 35.1533 64.3587 34.3184C64.5491 33.498 64.6443 32.3555 64.6443 30.8906V0.875977H72.2469V30.5171C72.2469 33.7544 71.8734 36.2886 71.1263 38.1196C70.3939 39.9507 69.3245 41.2324 67.9183 41.9648C66.5267 42.7119 64.8348 43.0854 62.8426 43.0854ZM101.097 16.894C101.097 19.5894 100.833 21.9697 100.306 24.0352C99.7933 26.0859 99.0169 27.8145 97.9769 29.2207C96.9515 30.6123 95.6771 31.667 94.1536 32.3848C92.6448 33.0879 90.8943 33.4395 88.9022 33.4395C86.9246 33.4395 85.1741 33.0806 83.6507 32.3628C82.1273 31.645 80.8455 30.5903 79.8055 29.1987C78.7654 27.7925 77.9818 26.0566 77.4544 23.9912C76.9271 21.9258 76.6634 19.5454 76.6634 16.8501C76.6634 13.2759 77.1248 10.2656 78.0477 7.81934C78.9852 5.37305 80.3621 3.52002 82.1785 2.26025C84.0096 1.00049 86.2508 0.370605 88.9022 0.370605C91.5682 0.370605 93.8021 0.993164 95.6038 2.23828C97.4202 3.4834 98.7899 5.33643 99.7127 7.79736C100.636 10.2437 101.097 13.2759 101.097 16.894ZM84.6175 16.894C84.6175 19.0767 84.7786 20.9004 85.1009 22.3652C85.4232 23.8301 85.8992 24.9287 86.5291 25.6611C87.1736 26.3789 87.9647 26.7378 88.9022 26.7378C89.869 26.7378 90.66 26.3862 91.2752 25.6831C91.9051 24.98 92.3665 23.9033 92.6595 22.4531C92.9671 20.9883 93.1209 19.1353 93.1209 16.894C93.1209 13.4956 92.7693 10.9907 92.0662 9.37939C91.3777 7.75342 90.3231 6.94043 88.9022 6.94043C87.9647 6.94043 87.1736 7.31396 86.5291 8.06104C85.8992 8.79346 85.4232 9.89941 85.1009 11.3789C84.7786 12.8438 84.6175 14.6821 84.6175 16.894ZM126.344 33H118.104L114.5 23.7275L110.809 33H102.767L110.106 16.938L103.206 0.875977H111.138L114.281 9.7749L117.203 0.875977H125.311L118.653 16.6743L126.344 33Z" fill="#F9F9F9"/>
</svg>
