<svg width="58" height="72" viewBox="0 0 58 72" fill="none" xmlns="http://www.w3.org/2000/svg">
<path d="M54.2918 15.9954L25.2097 26.3704C24.8674 26.6106 24.4742 26.7501 24.0708 26.7767L14.0884 30.3379H55.6284C56.9385 30.3379 58 31.5037 58 32.9418V58.9806C58 66.171 52.691 72 46.1422 72H12.9406C6.39177 72 1.08286 66.171 1.08286 58.9806V32.9418C1.08286 32.3859 1.24152 31.8707 1.51183 31.4478L0.583553 28.311C-1.44014 21.4726 1.9684 14.1276 8.19671 11.9057L39.7737 0.64072C46.0018 -1.58122 52.6915 2.16123 54.7149 8.99967L55.8144 12.7143C56.219 14.082 55.5374 15.551 54.2918 15.9954ZM36.5333 16.8549L42.6304 5.2602C42.1661 5.31894 41.7008 5.42898 41.2393 5.5936L35.333 7.7006L29.1306 19.4959L36.5333 16.8549ZM47.42 6.54917C47.392 6.61395 47.3617 6.67801 47.3285 6.74118L43.275 14.4499L50.5704 11.8472L50.2042 10.609C49.6939 8.88541 48.6902 7.48963 47.42 6.54917ZM28.5915 10.1056L21.1888 12.7465L14.9864 24.5418L22.3891 21.9009L28.5915 10.1056ZM5.46094 27.94L8.24486 26.9469L14.4472 15.1516L9.66243 16.8586C5.92543 18.1918 3.8803 22.5987 5.09453 26.7018L5.46094 27.94ZM5.82597 35.5456V58.9806C5.82597 63.2947 9.01129 66.7923 12.9406 66.7923H46.1422C50.0719 66.7923 53.2569 63.2947 53.2569 58.9806V35.5456H5.82597Z" fill="white"/>
</svg>
