<svg width="458" height="179" viewBox="0 0 458 179" fill="none" xmlns="http://www.w3.org/2000/svg">
<rect opacity="0.7" width="458" height="179" rx="10" fill="#393F6D"/>
<path d="M63.8182 162V138.727H71.6818C73.5 138.727 74.9924 139.038 76.1591 139.659C77.3258 140.273 78.1894 141.117 78.75 142.193C79.3106 143.269 79.5909 144.492 79.5909 145.864C79.5909 147.235 79.3106 148.451 78.75 149.511C78.1894 150.572 77.3295 151.405 76.1705 152.011C75.0114 152.61 73.5303 152.909 71.7273 152.909H65.3636V150.364H71.6364C72.8788 150.364 73.8788 150.182 74.6364 149.818C75.4015 149.455 75.9545 148.939 76.2955 148.273C76.6439 147.598 76.8182 146.795 76.8182 145.864C76.8182 144.932 76.6439 144.117 76.2955 143.42C75.947 142.723 75.3902 142.186 74.625 141.807C73.8598 141.42 72.8485 141.227 71.5909 141.227H66.6364V162H63.8182ZM74.7727 151.545L80.5 162H77.2273L71.5909 151.545H74.7727ZM83.9233 168.545V144.545H86.5142V147.318H86.8324C87.0294 147.015 87.3021 146.629 87.6506 146.159C88.0066 145.682 88.5142 145.258 89.1733 144.886C89.84 144.508 90.7415 144.318 91.8778 144.318C93.3475 144.318 94.643 144.686 95.7642 145.42C96.8854 146.155 97.7604 147.197 98.3892 148.545C99.018 149.894 99.3324 151.485 99.3324 153.318C99.3324 155.167 99.018 156.769 98.3892 158.125C97.7604 159.473 96.8892 160.519 95.7756 161.261C94.6619 161.996 93.3778 162.364 91.9233 162.364C90.8021 162.364 89.9044 162.178 89.2301 161.807C88.5559 161.428 88.0369 161 87.6733 160.523C87.3097 160.038 87.0294 159.636 86.8324 159.318H86.6051V168.545H83.9233ZM86.5597 153.273C86.5597 154.591 86.7528 155.754 87.1392 156.761C87.5256 157.761 88.09 158.545 88.8324 159.114C89.5748 159.674 90.4839 159.955 91.5597 159.955C92.6809 159.955 93.6165 159.659 94.3665 159.068C95.1241 158.47 95.6922 157.667 96.071 156.659C96.4574 155.644 96.6506 154.515 96.6506 153.273C96.6506 152.045 96.4612 150.939 96.0824 149.955C95.7112 148.962 95.1468 148.178 94.3892 147.602C93.6392 147.019 92.696 146.727 91.5597 146.727C90.4688 146.727 89.5521 147.004 88.8097 147.557C88.0672 148.102 87.5066 148.867 87.1278 149.852C86.7491 150.83 86.5597 151.97 86.5597 153.273ZM105.378 162.182C104.817 162.182 104.336 161.981 103.935 161.58C103.533 161.178 103.332 160.697 103.332 160.136C103.332 159.576 103.533 159.095 103.935 158.693C104.336 158.292 104.817 158.091 105.378 158.091C105.938 158.091 106.42 158.292 106.821 158.693C107.223 159.095 107.423 159.576 107.423 160.136C107.423 160.508 107.329 160.848 107.139 161.159C106.957 161.47 106.711 161.72 106.401 161.909C106.098 162.091 105.757 162.182 105.378 162.182ZM133.678 133.636V162H127.681V139.328H127.515L121.02 143.4V138.082L128.041 133.636H133.678ZM151.54 162.623C149.158 162.614 147.108 162.028 145.391 160.864C143.683 159.701 142.367 158.016 141.444 155.809C140.53 153.603 140.078 150.948 140.087 147.846C140.087 144.753 140.544 142.117 141.458 139.938C142.381 137.759 143.697 136.102 145.405 134.966C147.122 133.821 149.167 133.249 151.54 133.249C153.913 133.249 155.954 133.821 157.662 134.966C159.379 136.111 160.699 137.773 161.623 139.952C162.546 142.121 163.003 144.753 162.994 147.846C162.994 150.957 162.532 153.616 161.609 155.823C160.695 158.03 159.384 159.715 157.676 160.878C155.967 162.042 153.922 162.623 151.54 162.623ZM151.54 157.651C153.165 157.651 154.462 156.834 155.432 155.2C156.401 153.566 156.881 151.114 156.872 147.846C156.872 145.695 156.651 143.903 156.207 142.472C155.774 141.041 155.155 139.966 154.352 139.245C153.558 138.525 152.62 138.165 151.54 138.165C149.924 138.165 148.632 138.973 147.662 140.589C146.693 142.205 146.204 144.624 146.194 147.846C146.194 150.025 146.411 151.844 146.845 153.303C147.288 154.752 147.912 155.842 148.715 156.571C149.518 157.291 150.46 157.651 151.54 157.651ZM178.391 162.623C176.009 162.614 173.959 162.028 172.242 160.864C170.534 159.701 169.218 158.016 168.295 155.809C167.381 153.603 166.928 150.948 166.937 147.846C166.937 144.753 167.394 142.117 168.308 139.938C169.232 137.759 170.547 136.102 172.256 134.966C173.973 133.821 176.018 133.249 178.391 133.249C180.764 133.249 182.804 133.821 184.512 134.966C186.23 136.111 187.55 137.773 188.473 139.952C189.396 142.121 189.854 144.753 189.844 147.846C189.844 150.957 189.383 153.616 188.459 155.823C187.545 158.03 186.234 159.715 184.526 160.878C182.818 162.042 180.773 162.623 178.391 162.623ZM178.391 157.651C180.016 157.651 181.313 156.834 182.282 155.2C183.252 153.566 183.732 151.114 183.723 147.846C183.723 145.695 183.501 143.903 183.058 142.472C182.624 141.041 182.006 139.966 181.202 139.245C180.408 138.525 179.471 138.165 178.391 138.165C176.775 138.165 175.482 138.973 174.513 140.589C173.544 142.205 173.054 144.624 173.045 147.846C173.045 150.025 173.262 151.844 173.696 153.303C174.139 154.752 174.762 155.842 175.566 156.571C176.369 157.291 177.311 157.651 178.391 157.651ZM196.482 162.36C195.568 162.36 194.783 162.037 194.127 161.391C193.481 160.735 193.158 159.95 193.158 159.036C193.158 158.131 193.481 157.356 194.127 156.71C194.783 156.063 195.568 155.74 196.482 155.74C197.368 155.74 198.144 156.063 198.808 156.71C199.473 157.356 199.805 158.131 199.805 159.036C199.805 159.646 199.649 160.204 199.335 160.712C199.03 161.211 198.628 161.612 198.13 161.917C197.631 162.212 197.082 162.36 196.482 162.36ZM214.572 162.623C212.19 162.614 210.141 162.028 208.423 160.864C206.715 159.701 205.4 158.016 204.476 155.809C203.562 153.603 203.11 150.948 203.119 147.846C203.119 144.753 203.576 142.117 204.49 139.938C205.413 137.759 206.729 136.102 208.437 134.966C210.154 133.821 212.2 133.249 214.572 133.249C216.945 133.249 218.986 133.821 220.694 134.966C222.411 136.111 223.732 137.773 224.655 139.952C225.578 142.121 226.035 144.753 226.026 147.846C226.026 150.957 225.564 153.616 224.641 155.823C223.727 158.03 222.416 159.715 220.708 160.878C219 162.042 216.955 162.623 214.572 162.623ZM214.572 157.651C216.197 157.651 217.495 156.834 218.464 155.2C219.434 153.566 219.914 151.114 219.904 147.846C219.904 145.695 219.683 143.903 219.24 142.472C218.806 141.041 218.187 139.966 217.384 139.245C216.59 138.525 215.653 138.165 214.572 138.165C212.957 138.165 211.664 138.973 210.695 140.589C209.725 142.205 209.236 144.624 209.227 147.846C209.227 150.025 209.444 151.844 209.877 153.303C210.321 154.752 210.944 155.842 211.747 156.571C212.55 157.291 213.492 157.651 214.572 157.651ZM241.423 162.623C239.041 162.614 236.991 162.028 235.274 160.864C233.566 159.701 232.25 158.016 231.327 155.809C230.413 153.603 229.96 150.948 229.97 147.846C229.97 144.753 230.427 142.117 231.341 139.938C232.264 137.759 233.58 136.102 235.288 134.966C237.005 133.821 239.05 133.249 241.423 133.249C243.796 133.249 245.836 133.821 247.544 134.966C249.262 136.111 250.582 137.773 251.505 139.952C252.429 142.121 252.886 144.753 252.877 147.846C252.877 150.957 252.415 153.616 251.492 155.823C250.578 158.03 249.266 159.715 247.558 160.878C245.85 162.042 243.805 162.623 241.423 162.623ZM241.423 157.651C243.048 157.651 244.345 156.834 245.315 155.2C246.284 153.566 246.764 151.114 246.755 147.846C246.755 145.695 246.533 143.903 246.09 142.472C245.656 141.041 245.038 139.966 244.234 139.245C243.44 138.525 242.503 138.165 241.423 138.165C239.807 138.165 238.515 138.973 237.545 140.589C236.576 142.205 236.086 144.624 236.077 147.846C236.077 150.025 236.294 151.844 236.728 153.303C237.171 154.752 237.794 155.842 238.598 156.571C239.401 157.291 240.343 157.651 241.423 157.651ZM268.274 162.623C265.892 162.614 263.842 162.028 262.124 160.864C260.416 159.701 259.101 158.016 258.177 155.809C257.263 153.603 256.811 150.948 256.82 147.846C256.82 144.753 257.277 142.117 258.191 139.938C259.115 137.759 260.43 136.102 262.138 134.966C263.856 133.821 265.901 133.249 268.274 133.249C270.646 133.249 272.687 133.821 274.395 134.966C276.112 136.111 277.433 137.773 278.356 139.952C279.279 142.121 279.736 144.753 279.727 147.846C279.727 150.957 279.265 153.616 278.342 155.823C277.428 158.03 276.117 159.715 274.409 160.878C272.701 162.042 270.656 162.623 268.274 162.623ZM268.274 157.651C269.899 157.651 271.196 156.834 272.165 155.2C273.135 153.566 273.615 151.114 273.606 147.846C273.606 145.695 273.384 143.903 272.941 142.472C272.507 141.041 271.888 139.966 271.085 139.245C270.291 138.525 269.354 138.165 268.274 138.165C266.658 138.165 265.365 138.973 264.396 140.589C263.426 142.205 262.937 144.624 262.928 147.846C262.928 150.025 263.145 151.844 263.579 153.303C264.022 154.752 264.645 155.842 265.448 156.571C266.252 157.291 267.193 157.651 268.274 157.651ZM301.644 137.636L294.144 165.5H291.689L299.189 137.636H301.644ZM312.593 138.727H315.956L323.865 158.045H324.138L332.047 138.727H335.411V162H332.774V144.318H332.547L325.274 162H322.729L315.456 144.318H315.229V162H312.593V138.727ZM347.789 162.364C346.213 162.364 344.83 161.989 343.641 161.239C342.459 160.489 341.535 159.439 340.868 158.091C340.209 156.742 339.88 155.167 339.88 153.364C339.88 151.545 340.209 149.958 340.868 148.602C341.535 147.246 342.459 146.193 343.641 145.443C344.83 144.693 346.213 144.318 347.789 144.318C349.364 144.318 350.743 144.693 351.925 145.443C353.114 146.193 354.039 147.246 354.698 148.602C355.364 149.958 355.698 151.545 355.698 153.364C355.698 155.167 355.364 156.742 354.698 158.091C354.039 159.439 353.114 160.489 351.925 161.239C350.743 161.989 349.364 162.364 347.789 162.364ZM347.789 159.955C348.986 159.955 349.97 159.648 350.743 159.034C351.516 158.42 352.088 157.614 352.459 156.614C352.83 155.614 353.016 154.53 353.016 153.364C353.016 152.197 352.83 151.11 352.459 150.102C352.088 149.095 351.516 148.28 350.743 147.659C349.97 147.038 348.986 146.727 347.789 146.727C346.592 146.727 345.607 147.038 344.834 147.659C344.061 148.28 343.489 149.095 343.118 150.102C342.747 151.11 342.561 152.197 342.561 153.364C342.561 154.53 342.747 155.614 343.118 156.614C343.489 157.614 344.061 158.42 344.834 159.034C345.607 159.648 346.592 159.955 347.789 159.955ZM362.473 151.5V162H359.791V144.545H362.382V147.273H362.61C363.019 146.386 363.64 145.674 364.473 145.136C365.307 144.591 366.382 144.318 367.701 144.318C368.882 144.318 369.916 144.561 370.803 145.045C371.689 145.523 372.379 146.25 372.871 147.227C373.363 148.197 373.61 149.424 373.61 150.909V162H370.928V151.091C370.928 149.72 370.572 148.652 369.86 147.886C369.148 147.114 368.17 146.727 366.928 146.727C366.072 146.727 365.307 146.913 364.632 147.284C363.966 147.655 363.439 148.197 363.053 148.909C362.666 149.621 362.473 150.485 362.473 151.5ZM386.101 144.545V146.818H377.056V144.545H386.101ZM379.692 140.364H382.374V157C382.374 157.758 382.484 158.326 382.703 158.705C382.931 159.076 383.219 159.326 383.567 159.455C383.923 159.576 384.298 159.636 384.692 159.636C384.987 159.636 385.23 159.621 385.419 159.591C385.609 159.553 385.76 159.523 385.874 159.5L386.419 161.909C386.237 161.977 385.984 162.045 385.658 162.114C385.332 162.189 384.919 162.227 384.419 162.227C383.662 162.227 382.919 162.064 382.192 161.739C381.472 161.413 380.874 160.917 380.397 160.25C379.927 159.583 379.692 158.742 379.692 157.727V140.364ZM393.192 151.5V162H390.51V138.727H393.192V147.273H393.419C393.828 146.371 394.442 145.655 395.26 145.125C396.086 144.587 397.184 144.318 398.556 144.318C399.745 144.318 400.787 144.557 401.681 145.034C402.575 145.504 403.268 146.227 403.76 147.205C404.26 148.174 404.51 149.409 404.51 150.909V162H401.828V151.091C401.828 149.705 401.469 148.633 400.749 147.875C400.037 147.11 399.048 146.727 397.783 146.727C396.904 146.727 396.116 146.913 395.419 147.284C394.73 147.655 394.184 148.197 393.783 148.909C393.389 149.621 393.192 150.485 393.192 151.5Z" fill="white"/>
<path d="M88.025 71.045C87.895 71.215 87.77 71.345 87.65 71.435C87.53 71.515 87.385 71.555 87.215 71.555C87.035 71.555 86.84 71.475 86.63 71.315C86.43 71.145 86.185 70.96 85.895 70.76C85.605 70.56 85.255 70.38 84.845 70.22C84.435 70.05 83.935 69.965 83.345 69.965C82.755 69.965 82.23 70.055 81.77 70.235C81.31 70.415 80.92 70.66 80.6 70.97C80.29 71.27 80.055 71.63 79.895 72.05C79.735 72.46 79.655 72.905 79.655 73.385C79.655 73.875 79.77 74.285 80 74.615C80.24 74.935 80.555 75.215 80.945 75.455C81.335 75.695 81.775 75.91 82.265 76.1C82.755 76.29 83.26 76.485 83.78 76.685C84.3 76.885 84.805 77.115 85.295 77.375C85.785 77.625 86.225 77.94 86.615 78.32C87.005 78.69 87.315 79.14 87.545 79.67C87.785 80.2 87.905 80.84 87.905 81.59C87.905 82.63 87.725 83.615 87.365 84.545C87.005 85.475 86.49 86.29 85.82 86.99C85.16 87.68 84.35 88.23 83.39 88.64C82.44 89.04 81.37 89.24 80.18 89.24C79.55 89.24 78.935 89.17 78.335 89.03C77.745 88.9 77.19 88.715 76.67 88.475C76.15 88.225 75.67 87.925 75.23 87.575C74.79 87.225 74.405 86.835 74.075 86.405L75.26 84.785C75.36 84.665 75.48 84.565 75.62 84.485C75.77 84.395 75.925 84.35 76.085 84.35C76.305 84.35 76.53 84.46 76.76 84.68C76.99 84.89 77.27 85.13 77.6 85.4C77.94 85.66 78.35 85.9 78.83 86.12C79.31 86.33 79.905 86.435 80.615 86.435C81.235 86.435 81.795 86.34 82.295 86.15C82.795 85.96 83.215 85.695 83.555 85.355C83.905 85.005 84.17 84.585 84.35 84.095C84.54 83.595 84.635 83.045 84.635 82.445C84.635 81.925 84.515 81.495 84.275 81.155C84.045 80.815 83.735 80.525 83.345 80.285C82.965 80.045 82.53 79.84 82.04 79.67C81.55 79.5 81.05 79.32 80.54 79.13C80.03 78.94 79.53 78.725 79.04 78.485C78.55 78.235 78.11 77.925 77.72 77.555C77.34 77.175 77.03 76.71 76.79 76.16C76.56 75.6 76.445 74.92 76.445 74.12C76.445 73.21 76.61 72.34 76.94 71.51C77.27 70.67 77.745 69.93 78.365 69.29C78.995 68.65 79.755 68.14 80.645 67.76C81.535 67.37 82.54 67.175 83.66 67.175C84.23 67.175 84.775 67.235 85.295 67.355C85.815 67.465 86.305 67.63 86.765 67.85C87.225 68.06 87.64 68.315 88.01 68.615C88.39 68.915 88.725 69.245 89.015 69.605L88.025 71.045ZM90.7163 85.985C90.7163 85.915 90.7163 85.835 90.7163 85.745C90.7263 85.645 90.7363 85.505 90.7463 85.325C90.7663 85.145 90.7913 84.905 90.8213 84.605C90.8513 84.305 90.8963 83.92 90.9563 83.45L91.8413 76.235H90.2963C90.1263 76.235 89.9913 76.18 89.8913 76.07C89.7913 75.95 89.7563 75.775 89.7863 75.545L89.9363 74.24L92.2613 73.88L93.4613 69.455C93.5213 69.285 93.6113 69.15 93.7313 69.05C93.8613 68.94 94.0163 68.885 94.1963 68.885H95.9063L95.2763 73.91H99.1313L98.8613 76.235H94.9913L94.1363 83.27C94.0863 83.68 94.0463 84.01 94.0163 84.26C93.9863 84.5 93.9613 84.695 93.9413 84.845C93.9313 84.985 93.9213 85.085 93.9113 85.145C93.9113 85.195 93.9113 85.235 93.9113 85.265C93.9113 85.705 94.0163 86.04 94.2263 86.27C94.4363 86.5 94.7263 86.615 95.0963 86.615C95.3363 86.615 95.5413 86.585 95.7113 86.525C95.8813 86.455 96.0313 86.385 96.1613 86.315C96.2913 86.235 96.4013 86.165 96.4913 86.105C96.5813 86.035 96.6663 86 96.7463 86C96.8563 86 96.9363 86.025 96.9863 86.075C97.0363 86.115 97.0863 86.19 97.1363 86.3L97.8263 87.875C97.2963 88.315 96.7063 88.655 96.0563 88.895C95.4163 89.125 94.7663 89.24 94.1063 89.24C93.0763 89.24 92.2613 88.96 91.6613 88.4C91.0613 87.83 90.7463 87.025 90.7163 85.985ZM110.279 75.86C110.109 75.84 109.939 75.825 109.769 75.815C109.609 75.805 109.444 75.8 109.274 75.8C108.414 75.8 107.604 76 106.844 76.4C106.094 76.8 105.439 77.34 104.879 78.02C104.329 78.7 103.894 79.49 103.574 80.39C103.254 81.28 103.094 82.22 103.094 83.21C103.094 84.35 103.274 85.195 103.634 85.745C104.004 86.285 104.524 86.555 105.194 86.555C105.644 86.555 106.084 86.41 106.514 86.12C106.944 85.82 107.349 85.415 107.729 84.905C108.119 84.385 108.479 83.775 108.809 83.075C109.139 82.375 109.424 81.615 109.664 80.795L110.279 75.86ZM109.259 85.43C108.909 86.01 108.534 86.535 108.134 87.005C107.744 87.465 107.329 87.86 106.889 88.19C106.449 88.52 105.984 88.775 105.494 88.955C105.004 89.135 104.494 89.225 103.964 89.225C103.374 89.225 102.829 89.11 102.329 88.88C101.829 88.65 101.399 88.305 101.039 87.845C100.679 87.385 100.394 86.82 100.184 86.15C99.9839 85.47 99.8839 84.685 99.8839 83.795C99.8839 82.885 99.9989 82 100.229 81.14C100.459 80.27 100.784 79.455 101.204 78.695C101.624 77.925 102.129 77.22 102.719 76.58C103.309 75.94 103.969 75.39 104.699 74.93C105.429 74.47 106.214 74.115 107.054 73.865C107.904 73.605 108.794 73.475 109.724 73.475C110.394 73.475 111.059 73.53 111.719 73.64C112.379 73.74 113.024 73.92 113.654 74.18L111.824 89H110.129C109.719 89 109.439 88.895 109.289 88.685C109.139 88.475 109.064 88.215 109.064 87.905L109.259 85.43ZM119.882 77.165C120.672 75.925 121.557 75 122.537 74.39C123.517 73.77 124.527 73.46 125.567 73.46C126.207 73.46 126.777 73.59 127.277 73.85C127.777 74.1 128.187 74.475 128.507 74.975C128.827 75.465 129.047 76.07 129.167 76.79C129.287 77.51 129.292 78.335 129.182 79.265L128.027 89H124.817L125.972 79.265C126.112 78.175 126.047 77.385 125.777 76.895C125.517 76.395 125.042 76.145 124.352 76.145C123.912 76.145 123.457 76.27 122.987 76.52C122.527 76.77 122.082 77.125 121.652 77.585C121.232 78.035 120.837 78.585 120.467 79.235C120.097 79.875 119.792 80.59 119.552 81.38L118.712 89H115.502L117.332 73.67H118.952C119.302 73.67 119.567 73.76 119.747 73.94C119.937 74.11 120.032 74.38 120.032 74.75L119.882 77.165ZM142.206 77.15C141.846 76.71 141.421 76.405 140.931 76.235C140.451 76.055 139.971 75.965 139.491 75.965C138.771 75.965 138.116 76.185 137.526 76.625C136.946 77.055 136.446 77.62 136.026 78.32C135.616 79.01 135.296 79.79 135.066 80.66C134.846 81.52 134.736 82.38 134.736 83.24C134.736 84.37 134.931 85.22 135.321 85.79C135.711 86.36 136.256 86.645 136.956 86.645C137.396 86.645 137.846 86.5 138.306 86.21C138.766 85.92 139.206 85.52 139.626 85.01C140.046 84.5 140.436 83.895 140.796 83.195C141.166 82.495 141.481 81.735 141.741 80.915L142.206 77.15ZM146.646 66.8L143.901 89H142.206C141.796 89 141.516 88.895 141.366 88.685C141.226 88.475 141.156 88.215 141.156 87.905L141.351 85.295C140.971 85.895 140.566 86.435 140.136 86.915C139.706 87.395 139.251 87.81 138.771 88.16C138.301 88.5 137.811 88.765 137.301 88.955C136.791 89.135 136.266 89.225 135.726 89.225C134.436 89.225 133.416 88.755 132.666 87.815C131.926 86.865 131.556 85.45 131.556 83.57C131.556 82.72 131.641 81.88 131.811 81.05C131.991 80.22 132.241 79.43 132.561 78.68C132.881 77.93 133.266 77.24 133.716 76.61C134.176 75.97 134.681 75.42 135.231 74.96C135.781 74.49 136.371 74.125 137.001 73.865C137.641 73.595 138.306 73.46 138.996 73.46C139.716 73.46 140.371 73.595 140.961 73.865C141.551 74.135 142.056 74.515 142.476 75.005L143.496 66.8H146.646ZM157.886 75.86C157.716 75.84 157.546 75.825 157.376 75.815C157.216 75.805 157.051 75.8 156.881 75.8C156.021 75.8 155.211 76 154.451 76.4C153.701 76.8 153.046 77.34 152.486 78.02C151.936 78.7 151.501 79.49 151.181 80.39C150.861 81.28 150.701 82.22 150.701 83.21C150.701 84.35 150.881 85.195 151.241 85.745C151.611 86.285 152.131 86.555 152.801 86.555C153.251 86.555 153.691 86.41 154.121 86.12C154.551 85.82 154.956 85.415 155.336 84.905C155.726 84.385 156.086 83.775 156.416 83.075C156.746 82.375 157.031 81.615 157.271 80.795L157.886 75.86ZM156.866 85.43C156.516 86.01 156.141 86.535 155.741 87.005C155.351 87.465 154.936 87.86 154.496 88.19C154.056 88.52 153.591 88.775 153.101 88.955C152.611 89.135 152.101 89.225 151.571 89.225C150.981 89.225 150.436 89.11 149.936 88.88C149.436 88.65 149.006 88.305 148.646 87.845C148.286 87.385 148.001 86.82 147.791 86.15C147.591 85.47 147.491 84.685 147.491 83.795C147.491 82.885 147.606 82 147.836 81.14C148.066 80.27 148.391 79.455 148.811 78.695C149.231 77.925 149.736 77.22 150.326 76.58C150.916 75.94 151.576 75.39 152.306 74.93C153.036 74.47 153.821 74.115 154.661 73.865C155.511 73.605 156.401 73.475 157.331 73.475C158.001 73.475 158.666 73.53 159.326 73.64C159.986 73.74 160.631 73.92 161.261 74.18L159.431 89H157.736C157.326 89 157.046 88.895 156.896 88.685C156.746 88.475 156.671 88.215 156.671 87.905L156.866 85.43ZM167.474 77.645C167.864 76.835 168.284 76.14 168.734 75.56C169.194 74.98 169.669 74.525 170.159 74.195C170.659 73.865 171.169 73.67 171.689 73.61C172.219 73.55 172.749 73.635 173.279 73.865L172.694 76.955C171.424 76.445 170.309 76.61 169.349 77.45C168.399 78.28 167.634 79.855 167.054 82.175L166.244 89H163.094L164.939 73.67H166.559C166.909 73.67 167.174 73.76 167.354 73.94C167.544 74.11 167.639 74.38 167.639 74.75L167.474 77.645ZM183.69 77.15C183.33 76.71 182.905 76.405 182.415 76.235C181.935 76.055 181.455 75.965 180.975 75.965C180.255 75.965 179.6 76.185 179.01 76.625C178.43 77.055 177.93 77.62 177.51 78.32C177.1 79.01 176.78 79.79 176.55 80.66C176.33 81.52 176.22 82.38 176.22 83.24C176.22 84.37 176.415 85.22 176.805 85.79C177.195 86.36 177.74 86.645 178.44 86.645C178.88 86.645 179.33 86.5 179.79 86.21C180.25 85.92 180.69 85.52 181.11 85.01C181.53 84.5 181.92 83.895 182.28 83.195C182.65 82.495 182.965 81.735 183.225 80.915L183.69 77.15ZM188.13 66.8L185.385 89H183.69C183.28 89 183 88.895 182.85 88.685C182.71 88.475 182.64 88.215 182.64 87.905L182.835 85.295C182.455 85.895 182.05 86.435 181.62 86.915C181.19 87.395 180.735 87.81 180.255 88.16C179.785 88.5 179.295 88.765 178.785 88.955C178.275 89.135 177.75 89.225 177.21 89.225C175.92 89.225 174.9 88.755 174.15 87.815C173.41 86.865 173.04 85.45 173.04 83.57C173.04 82.72 173.125 81.88 173.295 81.05C173.475 80.22 173.725 79.43 174.045 78.68C174.365 77.93 174.75 77.24 175.2 76.61C175.66 75.97 176.165 75.42 176.715 74.96C177.265 74.49 177.855 74.125 178.485 73.865C179.125 73.595 179.79 73.46 180.48 73.46C181.2 73.46 181.855 73.595 182.445 73.865C183.035 74.135 183.54 74.515 183.96 75.005L184.98 66.8H188.13ZM220.358 67.4L217.703 89H214.748L216.578 74.09C216.608 73.86 216.648 73.6 216.698 73.31C216.758 73.02 216.823 72.73 216.893 72.44L208.988 85.355C208.688 85.855 208.258 86.105 207.698 86.105H207.233C206.973 86.105 206.743 86.045 206.543 85.925C206.343 85.795 206.198 85.605 206.108 85.355L201.308 72.44C201.298 72.73 201.283 73.01 201.263 73.28C201.253 73.55 201.238 73.8 201.218 74.03L199.388 89H196.418L199.073 67.4H201.593C201.743 67.4 201.868 67.41 201.968 67.43C202.068 67.44 202.158 67.465 202.238 67.505C202.318 67.545 202.393 67.6 202.463 67.67C202.533 67.74 202.608 67.835 202.688 67.955L207.518 80.855C207.668 81.325 207.798 81.805 207.908 82.295C208.018 82.045 208.133 81.8 208.253 81.56C208.373 81.32 208.503 81.085 208.643 80.855L216.608 67.955C216.818 67.725 216.998 67.575 217.148 67.505C217.308 67.435 217.533 67.4 217.823 67.4H220.358ZM227.662 86.705C228.332 86.705 228.942 86.52 229.492 86.15C230.042 85.77 230.507 85.265 230.887 84.635C231.277 84.005 231.577 83.28 231.787 82.46C231.997 81.63 232.102 80.765 232.102 79.865C232.102 78.545 231.857 77.57 231.367 76.94C230.887 76.3 230.172 75.98 229.222 75.98C228.542 75.98 227.927 76.165 227.377 76.535C226.837 76.905 226.377 77.4 225.997 78.02C225.617 78.64 225.322 79.365 225.112 80.195C224.902 81.025 224.797 81.895 224.797 82.805C224.797 85.405 225.752 86.705 227.662 86.705ZM227.377 89.225C226.537 89.225 225.762 89.085 225.052 88.805C224.342 88.515 223.727 88.1 223.207 87.56C222.697 87.01 222.297 86.34 222.007 85.55C221.717 84.75 221.572 83.845 221.572 82.835C221.572 81.525 221.777 80.3 222.187 79.16C222.607 78.02 223.177 77.03 223.897 76.19C224.617 75.34 225.457 74.675 226.417 74.195C227.387 73.705 228.422 73.46 229.522 73.46C230.362 73.46 231.137 73.605 231.847 73.895C232.557 74.175 233.167 74.59 233.677 75.14C234.187 75.68 234.587 76.35 234.877 77.15C235.167 77.94 235.312 78.84 235.312 79.85C235.312 80.71 235.217 81.54 235.027 82.34C234.837 83.14 234.572 83.89 234.232 84.59C233.892 85.28 233.477 85.91 232.987 86.48C232.507 87.05 231.972 87.54 231.382 87.95C230.802 88.35 230.172 88.665 229.492 88.895C228.812 89.115 228.107 89.225 227.377 89.225ZM242.302 73.7L240.337 89.795C240.257 90.435 240.097 91.035 239.857 91.595C239.617 92.165 239.292 92.66 238.882 93.08C238.482 93.5 237.997 93.83 237.427 94.07C236.857 94.31 236.207 94.43 235.477 94.43C235.097 94.43 234.777 94.405 234.517 94.355C234.247 94.305 233.982 94.235 233.722 94.145L234.037 92.39C234.097 92.19 234.197 92.075 234.337 92.045C234.467 92.015 234.702 92 235.042 92C235.382 92 235.677 91.96 235.927 91.88C236.167 91.8 236.372 91.67 236.542 91.49C236.712 91.32 236.847 91.095 236.947 90.815C237.057 90.535 237.137 90.195 237.187 89.795L239.152 73.7H242.302ZM243.187 69.08C243.187 69.37 243.127 69.645 243.007 69.905C242.887 70.165 242.727 70.395 242.527 70.595C242.327 70.785 242.097 70.94 241.837 71.06C241.587 71.17 241.327 71.225 241.057 71.225C240.797 71.225 240.542 71.17 240.292 71.06C240.052 70.94 239.837 70.785 239.647 70.595C239.457 70.395 239.302 70.165 239.182 69.905C239.072 69.645 239.017 69.37 239.017 69.08C239.017 68.79 239.072 68.515 239.182 68.255C239.302 67.985 239.457 67.755 239.647 67.565C239.847 67.365 240.067 67.21 240.307 67.1C240.557 66.98 240.817 66.92 241.087 66.92C241.357 66.92 241.617 66.98 241.867 67.1C242.117 67.21 242.337 67.365 242.527 67.565C242.727 67.755 242.887 67.98 243.007 68.24C243.127 68.5 243.187 68.78 243.187 69.08ZM250.396 86.705C251.066 86.705 251.676 86.52 252.226 86.15C252.776 85.77 253.241 85.265 253.621 84.635C254.011 84.005 254.311 83.28 254.521 82.46C254.731 81.63 254.836 80.765 254.836 79.865C254.836 78.545 254.591 77.57 254.101 76.94C253.621 76.3 252.906 75.98 251.956 75.98C251.276 75.98 250.661 76.165 250.111 76.535C249.571 76.905 249.111 77.4 248.731 78.02C248.351 78.64 248.056 79.365 247.846 80.195C247.636 81.025 247.531 81.895 247.531 82.805C247.531 85.405 248.486 86.705 250.396 86.705ZM250.111 89.225C249.271 89.225 248.496 89.085 247.786 88.805C247.076 88.515 246.461 88.1 245.941 87.56C245.431 87.01 245.031 86.34 244.741 85.55C244.451 84.75 244.306 83.845 244.306 82.835C244.306 81.525 244.511 80.3 244.921 79.16C245.341 78.02 245.911 77.03 246.631 76.19C247.351 75.34 248.191 74.675 249.151 74.195C250.121 73.705 251.156 73.46 252.256 73.46C253.096 73.46 253.871 73.605 254.581 73.895C255.291 74.175 255.901 74.59 256.411 75.14C256.921 75.68 257.321 76.35 257.611 77.15C257.901 77.94 258.046 78.84 258.046 79.85C258.046 80.71 257.951 81.54 257.761 82.34C257.571 83.14 257.306 83.89 256.966 84.59C256.626 85.28 256.211 85.91 255.721 86.48C255.241 87.05 254.706 87.54 254.116 87.95C253.536 88.35 252.906 88.665 252.226 88.895C251.546 89.115 250.841 89.225 250.111 89.225ZM267.572 80.75L271.562 89H268.667C268.437 89 268.257 88.94 268.127 88.82C267.997 88.7 267.897 88.555 267.827 88.385L265.232 82.655C265.182 82.775 265.127 82.89 265.067 83C265.017 83.1 264.957 83.2 264.887 83.3L261.122 88.4C261.012 88.56 260.887 88.7 260.747 88.82C260.607 88.94 260.432 89 260.222 89H257.402L263.522 80.735L259.922 73.7H262.817C263.047 73.7 263.212 73.73 263.312 73.79C263.412 73.85 263.497 73.96 263.567 74.12L265.877 79.01C265.937 78.9 266.002 78.785 266.072 78.665C266.142 78.545 266.217 78.425 266.297 78.305L269.342 74.18C269.532 73.86 269.777 73.7 270.077 73.7H272.972L267.572 80.75ZM280.745 75.77C280.185 75.77 279.665 75.885 279.185 76.115C278.715 76.345 278.29 76.665 277.91 77.075C277.54 77.475 277.215 77.955 276.935 78.515C276.665 79.075 276.455 79.685 276.305 80.345C277.685 80.165 278.795 79.965 279.635 79.745C280.475 79.525 281.12 79.285 281.57 79.025C282.02 78.765 282.32 78.49 282.47 78.2C282.62 77.9 282.695 77.585 282.695 77.255C282.695 77.095 282.66 76.925 282.59 76.745C282.52 76.565 282.405 76.405 282.245 76.265C282.095 76.125 281.895 76.01 281.645 75.92C281.395 75.82 281.095 75.77 280.745 75.77ZM285.23 86.165C284.71 86.695 284.2 87.155 283.7 87.545C283.2 87.925 282.69 88.24 282.17 88.49C281.65 88.74 281.105 88.925 280.535 89.045C279.965 89.165 279.345 89.225 278.675 89.225C277.785 89.225 276.985 89.075 276.275 88.775C275.565 88.475 274.955 88.055 274.445 87.515C273.945 86.965 273.56 86.305 273.29 85.535C273.02 84.755 272.885 83.885 272.885 82.925C272.885 82.125 272.97 81.34 273.14 80.57C273.31 79.79 273.555 79.05 273.875 78.35C274.205 77.65 274.6 77.005 275.06 76.415C275.53 75.815 276.06 75.3 276.65 74.87C277.25 74.44 277.905 74.105 278.615 73.865C279.335 73.615 280.105 73.49 280.925 73.49C281.715 73.49 282.4 73.605 282.98 73.835C283.56 74.055 284.04 74.345 284.42 74.705C284.81 75.055 285.1 75.445 285.29 75.875C285.48 76.305 285.575 76.725 285.575 77.135C285.575 77.805 285.435 78.42 285.155 78.98C284.885 79.54 284.395 80.045 283.685 80.495C282.975 80.945 282 81.335 280.76 81.665C279.53 81.995 277.95 82.26 276.02 82.46C276.01 82.52 276.005 82.585 276.005 82.655C276.005 82.715 276.005 82.78 276.005 82.85C276.005 84.12 276.28 85.08 276.83 85.73C277.38 86.37 278.205 86.69 279.305 86.69C279.995 86.69 280.57 86.595 281.03 86.405C281.49 86.215 281.88 86.01 282.2 85.79C282.53 85.56 282.815 85.35 283.055 85.16C283.305 84.97 283.565 84.875 283.835 84.875C284.045 84.875 284.24 84.975 284.42 85.175L285.23 86.165ZM291.752 77.645C292.142 76.835 292.562 76.14 293.012 75.56C293.472 74.98 293.947 74.525 294.437 74.195C294.937 73.865 295.447 73.67 295.967 73.61C296.497 73.55 297.027 73.635 297.557 73.865L296.972 76.955C295.702 76.445 294.587 76.61 293.627 77.45C292.677 78.28 291.912 79.855 291.332 82.175L290.522 89H287.372L289.217 73.67H290.837C291.187 73.67 291.452 73.76 291.632 73.94C291.822 74.11 291.917 74.38 291.917 74.75L291.752 77.645ZM307.778 76.385C307.688 76.525 307.593 76.625 307.493 76.685C307.403 76.745 307.288 76.775 307.148 76.775C306.988 76.775 306.823 76.725 306.653 76.625C306.483 76.515 306.278 76.395 306.038 76.265C305.808 76.135 305.533 76.02 305.213 75.92C304.893 75.81 304.508 75.755 304.058 75.755C303.638 75.755 303.258 75.81 302.918 75.92C302.588 76.03 302.303 76.18 302.063 76.37C301.823 76.56 301.638 76.785 301.508 77.045C301.388 77.305 301.328 77.58 301.328 77.87C301.328 78.2 301.413 78.48 301.583 78.71C301.763 78.93 301.998 79.125 302.288 79.295C302.578 79.465 302.908 79.62 303.278 79.76C303.648 79.9 304.023 80.045 304.403 80.195C304.793 80.345 305.173 80.52 305.543 80.72C305.913 80.91 306.243 81.145 306.533 81.425C306.823 81.695 307.053 82.025 307.223 82.415C307.403 82.805 307.493 83.27 307.493 83.81C307.493 84.53 307.348 85.22 307.058 85.88C306.778 86.54 306.368 87.12 305.828 87.62C305.298 88.11 304.653 88.505 303.893 88.805C303.143 89.095 302.303 89.24 301.373 89.24C300.403 89.24 299.523 89.065 298.733 88.715C297.953 88.355 297.328 87.905 296.858 87.365L297.653 86.135C297.753 85.985 297.868 85.87 297.998 85.79C298.128 85.7 298.288 85.655 298.478 85.655C298.658 85.655 298.833 85.725 299.003 85.865C299.173 85.995 299.373 86.145 299.603 86.315C299.843 86.475 300.133 86.625 300.473 86.765C300.813 86.895 301.253 86.96 301.793 86.96C302.243 86.96 302.643 86.9 302.993 86.78C303.343 86.65 303.638 86.475 303.878 86.255C304.118 86.035 304.303 85.78 304.433 85.49C304.563 85.2 304.628 84.895 304.628 84.575C304.628 84.215 304.538 83.915 304.358 83.675C304.188 83.435 303.958 83.23 303.668 83.06C303.378 82.88 303.048 82.725 302.678 82.595C302.318 82.465 301.943 82.33 301.553 82.19C301.173 82.05 300.798 81.89 300.428 81.71C300.068 81.53 299.743 81.305 299.453 81.035C299.163 80.765 298.928 80.44 298.748 80.06C298.578 79.67 298.493 79.195 298.493 78.635C298.493 77.975 298.623 77.335 298.883 76.715C299.143 76.085 299.518 75.53 300.008 75.05C300.498 74.57 301.098 74.185 301.808 73.895C302.518 73.605 303.328 73.46 304.238 73.46C305.188 73.46 306.023 73.62 306.743 73.94C307.473 74.26 308.093 74.685 308.603 75.215L307.778 76.385ZM314.722 66.275C315.052 67.005 315.227 67.74 315.247 68.48C315.277 69.21 315.167 69.925 314.917 70.625C314.677 71.325 314.307 72 313.807 72.65C313.317 73.3 312.722 73.905 312.022 74.465L311.152 73.895C311.022 73.795 310.957 73.665 310.957 73.505C310.957 73.415 310.982 73.33 311.032 73.25C311.082 73.17 311.167 73.06 311.287 72.92C311.477 72.7 311.682 72.42 311.902 72.08C312.122 71.73 312.297 71.34 312.427 70.91C312.567 70.47 312.632 70 312.622 69.5C312.622 68.99 312.497 68.455 312.247 67.895C312.167 67.715 312.172 67.545 312.262 67.385C312.362 67.225 312.522 67.105 312.742 67.025L314.722 66.275ZM330.804 78.47C331.604 78.47 332.304 78.35 332.904 78.11C333.514 77.86 334.019 77.52 334.419 77.09C334.819 76.65 335.119 76.13 335.319 75.53C335.519 74.92 335.619 74.255 335.619 73.535C335.619 72.475 335.309 71.63 334.689 71C334.069 70.37 333.114 70.055 331.824 70.055H328.929L327.894 78.47H330.804ZM332.154 67.4C333.334 67.4 334.354 67.545 335.214 67.835C336.084 68.115 336.799 68.515 337.359 69.035C337.929 69.545 338.349 70.16 338.619 70.88C338.889 71.59 339.024 72.375 339.024 73.235C339.024 74.385 338.839 75.445 338.469 76.415C338.109 77.375 337.569 78.205 336.849 78.905C336.129 79.605 335.234 80.155 334.164 80.555C333.104 80.945 331.874 81.14 330.474 81.14H327.564L326.604 89H323.244L325.884 67.4H332.154ZM343.988 77.645C344.378 76.835 344.798 76.14 345.248 75.56C345.708 74.98 346.183 74.525 346.673 74.195C347.173 73.865 347.683 73.67 348.203 73.61C348.733 73.55 349.263 73.635 349.793 73.865L349.208 76.955C347.938 76.445 346.823 76.61 345.863 77.45C344.913 78.28 344.148 79.855 343.568 82.175L342.758 89H339.608L341.453 73.67H343.073C343.423 73.67 343.688 73.76 343.868 73.94C344.058 74.11 344.153 74.38 344.153 74.75L343.988 77.645ZM355.198 73.7L353.353 89H350.188L352.018 73.7H355.198ZM356.158 69.08C356.158 69.37 356.098 69.645 355.978 69.905C355.858 70.165 355.698 70.395 355.498 70.595C355.298 70.785 355.073 70.94 354.823 71.06C354.573 71.17 354.313 71.225 354.043 71.225C353.773 71.225 353.513 71.17 353.263 71.06C353.023 70.94 352.808 70.785 352.618 70.595C352.438 70.395 352.288 70.165 352.168 69.905C352.058 69.645 352.003 69.37 352.003 69.08C352.003 68.79 352.058 68.515 352.168 68.255C352.288 67.985 352.443 67.755 352.633 67.565C352.823 67.365 353.043 67.21 353.293 67.1C353.543 66.98 353.798 66.92 354.058 66.92C354.328 66.92 354.588 66.98 354.838 67.1C355.098 67.21 355.323 67.365 355.513 67.565C355.713 67.755 355.868 67.98 355.978 68.24C356.098 68.5 356.158 68.78 356.158 69.08ZM368.826 86.27C368.316 86.84 367.826 87.315 367.356 87.695C366.886 88.065 366.411 88.365 365.931 88.595C365.461 88.825 364.966 88.985 364.446 89.075C363.936 89.175 363.376 89.225 362.766 89.225C361.876 89.225 361.086 89.075 360.396 88.775C359.706 88.465 359.126 88.035 358.656 87.485C358.186 86.925 357.826 86.255 357.576 85.475C357.326 84.695 357.201 83.83 357.201 82.88C357.201 82.06 357.291 81.255 357.471 80.465C357.651 79.675 357.906 78.935 358.236 78.245C358.566 77.545 358.966 76.905 359.436 76.325C359.916 75.735 360.451 75.23 361.041 74.81C361.631 74.39 362.271 74.065 362.961 73.835C363.651 73.595 364.381 73.475 365.151 73.475C366.171 73.475 367.026 73.655 367.716 74.015C368.416 74.375 369.031 74.905 369.561 75.605L368.541 76.835C368.461 76.915 368.371 76.99 368.271 77.06C368.171 77.12 368.061 77.15 367.941 77.15C367.791 77.15 367.646 77.095 367.506 76.985C367.366 76.875 367.196 76.755 366.996 76.625C366.796 76.485 366.546 76.36 366.246 76.25C365.946 76.13 365.561 76.07 365.091 76.07C364.461 76.07 363.861 76.24 363.291 76.58C362.731 76.92 362.236 77.395 361.806 78.005C361.386 78.605 361.051 79.325 360.801 80.165C360.551 81.005 360.426 81.92 360.426 82.91C360.426 84.09 360.686 85.015 361.206 85.685C361.736 86.355 362.481 86.69 363.441 86.69C364.061 86.69 364.576 86.6 364.986 86.42C365.396 86.24 365.741 86.045 366.021 85.835C366.311 85.625 366.561 85.43 366.771 85.25C366.981 85.07 367.201 84.98 367.431 84.98C367.641 84.98 367.836 85.08 368.016 85.28L368.826 86.27ZM378.391 75.77C377.831 75.77 377.311 75.885 376.831 76.115C376.361 76.345 375.936 76.665 375.556 77.075C375.186 77.475 374.861 77.955 374.581 78.515C374.311 79.075 374.101 79.685 373.951 80.345C375.331 80.165 376.441 79.965 377.281 79.745C378.121 79.525 378.766 79.285 379.216 79.025C379.666 78.765 379.966 78.49 380.116 78.2C380.266 77.9 380.341 77.585 380.341 77.255C380.341 77.095 380.306 76.925 380.236 76.745C380.166 76.565 380.051 76.405 379.891 76.265C379.741 76.125 379.541 76.01 379.291 75.92C379.041 75.82 378.741 75.77 378.391 75.77ZM382.876 86.165C382.356 86.695 381.846 87.155 381.346 87.545C380.846 87.925 380.336 88.24 379.816 88.49C379.296 88.74 378.751 88.925 378.181 89.045C377.611 89.165 376.991 89.225 376.321 89.225C375.431 89.225 374.631 89.075 373.921 88.775C373.211 88.475 372.601 88.055 372.091 87.515C371.591 86.965 371.206 86.305 370.936 85.535C370.666 84.755 370.531 83.885 370.531 82.925C370.531 82.125 370.616 81.34 370.786 80.57C370.956 79.79 371.201 79.05 371.521 78.35C371.851 77.65 372.246 77.005 372.706 76.415C373.176 75.815 373.706 75.3 374.296 74.87C374.896 74.44 375.551 74.105 376.261 73.865C376.981 73.615 377.751 73.49 378.571 73.49C379.361 73.49 380.046 73.605 380.626 73.835C381.206 74.055 381.686 74.345 382.066 74.705C382.456 75.055 382.746 75.445 382.936 75.875C383.126 76.305 383.221 76.725 383.221 77.135C383.221 77.805 383.081 78.42 382.801 78.98C382.531 79.54 382.041 80.045 381.331 80.495C380.621 80.945 379.646 81.335 378.406 81.665C377.176 81.995 375.596 82.26 373.666 82.46C373.656 82.52 373.651 82.585 373.651 82.655C373.651 82.715 373.651 82.78 373.651 82.85C373.651 84.12 373.926 85.08 374.476 85.73C375.026 86.37 375.851 86.69 376.951 86.69C377.641 86.69 378.216 86.595 378.676 86.405C379.136 86.215 379.526 86.01 379.846 85.79C380.176 85.56 380.461 85.35 380.701 85.16C380.951 84.97 381.211 84.875 381.481 84.875C381.691 84.875 381.886 84.975 382.066 85.175L382.876 86.165Z" fill="white"/>
<path d="M0 10C0 4.47715 4.47715 0 10 0H448C453.523 0 458 4.47715 458 10V35H0V10Z" fill="#00B9AE"/>
<path d="M138.435 24V9.45455H143.889C145.007 9.45455 145.944 9.66288 146.702 10.0795C147.464 10.4962 148.039 11.0691 148.428 11.7983C148.821 12.5227 149.017 13.3466 149.017 14.2699C149.017 15.2027 148.821 16.0312 148.428 16.7557C148.035 17.4801 147.455 18.0507 146.688 18.4673C145.92 18.8793 144.976 19.0852 143.854 19.0852H140.239V16.919H143.499C144.152 16.919 144.687 16.8054 145.104 16.5781C145.52 16.3509 145.828 16.0384 146.027 15.6406C146.231 15.2429 146.332 14.786 146.332 14.2699C146.332 13.7538 146.231 13.2992 146.027 12.9062C145.828 12.5133 145.518 12.2079 145.097 11.9901C144.68 11.7675 144.143 11.6562 143.484 11.6562H141.07V24H138.435ZM153.763 9.45455V24H151.192V9.45455H153.763ZM159.546 24.2202C158.855 24.2202 158.232 24.0971 157.678 23.8509C157.129 23.5999 156.693 23.2306 156.371 22.7429C156.054 22.2552 155.896 21.6539 155.896 20.9389C155.896 20.3234 156.009 19.8144 156.237 19.4119C156.464 19.0095 156.774 18.6875 157.167 18.446C157.56 18.2045 158.003 18.0223 158.495 17.8991C158.992 17.7713 159.506 17.679 160.036 17.6222C160.675 17.5559 161.194 17.4967 161.592 17.4446C161.989 17.3878 162.278 17.3026 162.458 17.1889C162.643 17.0705 162.735 16.8883 162.735 16.642V16.5994C162.735 16.0644 162.576 15.6501 162.259 15.3565C161.942 15.063 161.485 14.9162 160.888 14.9162C160.259 14.9162 159.759 15.0535 159.39 15.3281C159.025 15.6027 158.779 15.9271 158.651 16.3011L156.251 15.9602C156.44 15.2973 156.753 14.7434 157.188 14.2983C157.624 13.8485 158.156 13.5123 158.786 13.2898C159.416 13.0625 160.112 12.9489 160.874 12.9489C161.4 12.9489 161.923 13.0104 162.444 13.1335C162.965 13.2566 163.441 13.4602 163.871 13.7443C164.302 14.0237 164.648 14.4048 164.908 14.8878C165.174 15.3707 165.306 15.9744 165.306 16.6989V24H162.835V22.5014H162.749C162.593 22.8045 162.373 23.0885 162.089 23.3537C161.809 23.6141 161.457 23.8248 161.031 23.9858C160.609 24.142 160.114 24.2202 159.546 24.2202ZM160.214 22.331C160.73 22.331 161.177 22.2292 161.556 22.0256C161.935 21.8172 162.226 21.5426 162.43 21.2017C162.638 20.8608 162.742 20.4891 162.742 20.0866V18.8011C162.662 18.8674 162.524 18.929 162.33 18.9858C162.141 19.0426 161.928 19.0923 161.691 19.1349C161.454 19.1776 161.22 19.2154 160.988 19.2486C160.756 19.2817 160.555 19.3101 160.384 19.3338C160.001 19.3859 159.657 19.4711 159.354 19.5895C159.051 19.7079 158.812 19.8736 158.637 20.0866C158.462 20.295 158.374 20.5649 158.374 20.8963C158.374 21.3698 158.547 21.7273 158.893 21.9688C159.238 22.2102 159.679 22.331 160.214 22.331ZM173.339 13.0909V15.0795H167.067V13.0909H173.339ZM168.616 10.4773H171.187V20.7188C171.187 21.0644 171.239 21.3295 171.343 21.5142C171.452 21.6941 171.594 21.8172 171.769 21.8835C171.944 21.9498 172.138 21.983 172.352 21.983C172.513 21.983 172.659 21.9711 172.792 21.9474C172.929 21.9238 173.033 21.9025 173.104 21.8835L173.538 23.8935C173.4 23.9408 173.204 23.9929 172.948 24.0497C172.697 24.1065 172.389 24.1397 172.025 24.1491C171.381 24.1681 170.801 24.071 170.285 23.858C169.769 23.6402 169.359 23.304 169.056 22.8494C168.758 22.3949 168.611 21.8267 168.616 21.1449V10.4773ZM175.489 24V13.0909H178.06V24H175.489ZM176.782 11.5426C176.374 11.5426 176.024 11.4077 175.73 11.1378C175.437 10.8632 175.29 10.5341 175.29 10.1506C175.29 9.76231 175.437 9.43324 175.73 9.16335C176.024 8.88873 176.374 8.75142 176.782 8.75142C177.194 8.75142 177.544 8.88873 177.833 9.16335C178.126 9.43324 178.273 9.76231 178.273 10.1506C178.273 10.5341 178.126 10.8632 177.833 11.1378C177.544 11.4077 177.194 11.5426 176.782 11.5426ZM183.275 17.608V24H180.704V13.0909H183.161V14.9446H183.289C183.54 14.3338 183.94 13.8485 184.489 13.4886C185.043 13.1288 185.728 12.9489 186.542 12.9489C187.295 12.9489 187.951 13.1098 188.509 13.4318C189.073 13.7538 189.508 14.2202 189.816 14.831C190.129 15.4418 190.282 16.1828 190.278 17.054V24H187.707V17.4517C187.707 16.7225 187.517 16.152 187.138 15.7401C186.764 15.3281 186.246 15.1222 185.583 15.1222C185.133 15.1222 184.733 15.2216 184.383 15.4205C184.037 15.6146 183.765 15.8963 183.566 16.2656C183.372 16.6349 183.275 17.0824 183.275 17.608ZM199.844 19.4119V13.0909H202.415V24H199.923V22.0611H199.809C199.563 22.6719 199.158 23.1714 198.594 23.5597C198.036 23.9479 197.347 24.142 196.528 24.142C195.813 24.142 195.181 23.9834 194.631 23.6662C194.087 23.3442 193.661 22.8778 193.353 22.267C193.045 21.6515 192.891 20.9081 192.891 20.0369V13.0909H195.462V19.6392C195.462 20.3305 195.652 20.8797 196.031 21.2869C196.409 21.6941 196.906 21.8977 197.522 21.8977C197.901 21.8977 198.268 21.8054 198.623 21.6207C198.978 21.4361 199.269 21.1615 199.496 20.7969C199.728 20.4276 199.844 19.9659 199.844 19.4119ZM205.059 24V13.0909H207.517V14.9446H207.645C207.872 14.3196 208.248 13.8319 208.774 13.4815C209.299 13.1264 209.927 12.9489 210.656 12.9489C211.395 12.9489 212.017 13.1288 212.524 13.4886C213.035 13.8437 213.395 14.3291 213.603 14.9446H213.717C213.958 14.3385 214.366 13.8556 214.939 13.4957C215.516 13.1312 216.2 12.9489 216.991 12.9489C217.995 12.9489 218.814 13.2661 219.449 13.9006C220.083 14.535 220.4 15.4607 220.4 16.6776V24H217.822V17.0753C217.822 16.3982 217.642 15.9034 217.282 15.5909C216.922 15.2737 216.482 15.1151 215.961 15.1151C215.341 15.1151 214.856 15.3092 214.505 15.6974C214.16 16.081 213.987 16.5805 213.987 17.196V24H211.466V16.9688C211.466 16.4053 211.295 15.9555 210.954 15.6193C210.618 15.2831 210.178 15.1151 209.633 15.1151C209.264 15.1151 208.928 15.2098 208.625 15.3991C208.322 15.5838 208.08 15.8466 207.9 16.1875C207.72 16.5237 207.63 16.9167 207.63 17.3665V24H205.059ZM228.083 9.45455H231.308L235.626 19.9943H235.796L240.114 9.45455H243.339V24H240.81V14.0071H240.675L236.656 23.9574H234.766L230.746 13.9858H230.612V24H228.083V9.45455ZM250.924 24.2131C249.83 24.2131 248.886 23.9858 248.09 23.5312C247.299 23.072 246.691 22.4233 246.265 21.5852C245.839 20.7424 245.626 19.7505 245.626 18.6094C245.626 17.4872 245.839 16.5024 246.265 15.6548C246.696 14.8026 247.297 14.1397 248.069 13.6662C248.841 13.188 249.747 12.9489 250.789 12.9489C251.461 12.9489 252.096 13.0578 252.692 13.2756C253.294 13.4886 253.824 13.8201 254.283 14.2699C254.747 14.7197 255.112 15.2926 255.377 15.9886C255.642 16.6799 255.775 17.5038 255.775 18.4602V19.2486H246.833V17.5156H253.31C253.306 17.0232 253.199 16.5852 252.991 16.2017C252.782 15.8134 252.491 15.508 252.117 15.2855C251.748 15.063 251.317 14.9517 250.825 14.9517C250.299 14.9517 249.837 15.0795 249.44 15.3352C249.042 15.5862 248.732 15.9176 248.509 16.3295C248.291 16.7367 248.18 17.1842 248.175 17.6719V19.1847C248.175 19.8191 248.291 20.3636 248.523 20.8182C248.755 21.268 249.08 21.6136 249.496 21.8551C249.913 22.0919 250.401 22.2102 250.96 22.2102C251.334 22.2102 251.672 22.1581 251.975 22.054C252.278 21.9451 252.541 21.7865 252.763 21.5781C252.986 21.3698 253.154 21.1117 253.268 20.804L255.668 21.0739C255.517 21.7083 255.228 22.2623 254.802 22.7358C254.38 23.2045 253.841 23.5691 253.183 23.8295C252.524 24.0852 251.772 24.2131 250.924 24.2131ZM257.95 24V13.0909H260.407V14.9446H260.535C260.762 14.3196 261.139 13.8319 261.664 13.4815C262.19 13.1264 262.817 12.9489 263.547 12.9489C264.285 12.9489 264.908 13.1288 265.414 13.4886C265.926 13.8437 266.286 14.3291 266.494 14.9446H266.608C266.849 14.3385 267.256 13.8556 267.829 13.4957C268.407 13.1312 269.091 12.9489 269.882 12.9489C270.886 12.9489 271.705 13.2661 272.339 13.9006C272.974 14.535 273.291 15.4607 273.291 16.6776V24H270.713V17.0753C270.713 16.3982 270.533 15.9034 270.173 15.5909C269.813 15.2737 269.373 15.1151 268.852 15.1151C268.232 15.1151 267.746 15.3092 267.396 15.6974C267.05 16.081 266.877 16.5805 266.877 17.196V24H264.356V16.9688C264.356 16.4053 264.186 15.9555 263.845 15.6193C263.509 15.2831 263.068 15.1151 262.524 15.1151C262.154 15.1151 261.818 15.2098 261.515 15.3991C261.212 15.5838 260.971 15.8466 260.791 16.1875C260.611 16.5237 260.521 16.9167 260.521 17.3665V24H257.95ZM276.013 24V9.45455H278.584V14.8949H278.69C278.823 14.6297 279.01 14.348 279.251 14.0497C279.493 13.7467 279.82 13.4886 280.232 13.2756C280.643 13.0578 281.169 12.9489 281.808 12.9489C282.651 12.9489 283.411 13.1643 284.088 13.5952C284.77 14.0213 285.31 14.6534 285.707 15.4915C286.11 16.3248 286.311 17.3475 286.311 18.5597C286.311 19.7576 286.115 20.7756 285.722 21.6136C285.329 22.4517 284.794 23.0909 284.116 23.5312C283.439 23.9716 282.672 24.1918 281.815 24.1918C281.19 24.1918 280.672 24.0876 280.26 23.8793C279.848 23.6709 279.517 23.42 279.266 23.1264C279.019 22.8281 278.828 22.5464 278.69 22.2812H278.541V24H276.013ZM278.534 18.5455C278.534 19.2509 278.634 19.8688 278.832 20.3991C279.036 20.9295 279.327 21.3437 279.706 21.642C280.089 21.9356 280.554 22.0824 281.098 22.0824C281.666 22.0824 282.142 21.9309 282.526 21.6278C282.909 21.3201 283.198 20.901 283.392 20.3707C283.591 19.8357 283.69 19.2273 283.69 18.5455C283.69 17.8684 283.593 17.267 283.399 16.7415C283.205 16.2159 282.916 15.804 282.533 15.5057C282.149 15.2074 281.671 15.0582 281.098 15.0582C280.549 15.0582 280.082 15.2027 279.699 15.4915C279.315 15.7803 279.024 16.1851 278.825 16.706C278.631 17.2268 278.534 17.84 278.534 18.5455ZM293.326 24.2131C292.233 24.2131 291.288 23.9858 290.493 23.5312C289.702 23.072 289.093 22.4233 288.667 21.5852C288.241 20.7424 288.028 19.7505 288.028 18.6094C288.028 17.4872 288.241 16.5024 288.667 15.6548C289.098 14.8026 289.699 14.1397 290.471 13.6662C291.243 13.188 292.15 12.9489 293.191 12.9489C293.864 12.9489 294.498 13.0578 295.095 13.2756C295.696 13.4886 296.226 13.8201 296.686 14.2699C297.15 14.7197 297.514 15.2926 297.779 15.9886C298.045 16.6799 298.177 17.5038 298.177 18.4602V19.2486H289.235V17.5156H295.713C295.708 17.0232 295.601 16.5852 295.393 16.2017C295.185 15.8134 294.894 15.508 294.52 15.2855C294.15 15.063 293.719 14.9517 293.227 14.9517C292.701 14.9517 292.24 15.0795 291.842 15.3352C291.444 15.5862 291.134 15.9176 290.912 16.3295C290.694 16.7367 290.583 17.1842 290.578 17.6719V19.1847C290.578 19.8191 290.694 20.3636 290.926 20.8182C291.158 21.268 291.482 21.6136 291.899 21.8551C292.315 22.0919 292.803 22.2102 293.362 22.2102C293.736 22.2102 294.074 22.1581 294.377 22.054C294.681 21.9451 294.943 21.7865 295.166 21.5781C295.388 21.3698 295.556 21.1117 295.67 20.804L298.071 21.0739C297.919 21.7083 297.63 22.2623 297.204 22.7358C296.783 23.2045 296.243 23.5691 295.585 23.8295C294.927 24.0852 294.174 24.2131 293.326 24.2131ZM300.352 24V13.0909H302.845V14.9091H302.959C303.158 14.2794 303.499 13.794 303.982 13.4531C304.469 13.1075 305.026 12.9347 305.651 12.9347C305.793 12.9347 305.951 12.9418 306.126 12.956C306.306 12.9654 306.455 12.982 306.574 13.0057V15.3707C306.465 15.3329 306.292 15.2997 306.055 15.2713C305.823 15.2382 305.598 15.2216 305.381 15.2216C304.912 15.2216 304.491 15.3234 304.116 15.527C303.747 15.7259 303.456 16.0028 303.243 16.358C303.03 16.7131 302.923 17.1226 302.923 17.5866V24H300.352Z" fill="white"/>
</svg>
