<svg width="131" height="37" viewBox="0 0 131 37" fill="none" xmlns="http://www.w3.org/2000/svg">
<g opacity="0.8">
<g opacity="0.8" filter="url(#filter0_d_639_4603)">
<path d="M31.2727 15.813H10.7866L17.0568 10.0445C17.35 9.77431 17.4911 9.42598 17.4489 9.07613C17.4068 8.72628 17.185 8.40358 16.8323 8.179C16.4795 7.95443 16.0247 7.84639 15.568 7.87865C15.1112 7.9109 14.6899 8.08081 14.3967 8.351L5.76008 16.2893C5.70197 16.3524 5.65001 16.4187 5.60462 16.4877C5.60462 16.5539 5.60462 16.5936 5.48371 16.6597C5.40541 16.8114 5.36442 16.9729 5.36279 17.136C5.36442 17.2991 5.40541 17.4606 5.48371 17.6123C5.48371 17.6785 5.48371 17.7181 5.60462 17.7843C5.65001 17.8533 5.70197 17.9196 5.76008 17.9828L14.3967 25.921C14.5591 26.0704 14.7625 26.1905 14.9924 26.2728C15.2223 26.3551 15.473 26.3976 15.7268 26.3973C16.1304 26.3979 16.5215 26.2902 16.8323 26.093C17.0072 25.9819 17.1517 25.8455 17.2577 25.6916C17.3637 25.5377 17.429 25.3692 17.4498 25.1959C17.4707 25.0227 17.4467 24.8479 17.3793 24.6817C17.3118 24.5156 17.2023 24.3612 17.0568 24.2275L10.7866 18.459H31.2727C31.7308 18.459 32.1702 18.3197 32.4941 18.0715C32.8181 17.8234 33.0001 17.4869 33.0001 17.136C33.0001 16.7851 32.8181 16.4486 32.4941 16.2005C32.1702 15.9524 31.7308 15.813 31.2727 15.813Z" fill="white"/>
</g>
</g>
<g opacity="0.8" filter="url(#filter1_d_639_4603)">
<path d="M58.9363 22.15C59.463 22.15 59.9063 22.09 60.2663 21.97C60.633 21.8433 60.9297 21.6733 61.1563 21.46C61.3897 21.2467 61.5563 20.9967 61.6563 20.71C61.763 20.4167 61.8163 20.1033 61.8163 19.77C61.8163 19.09 61.583 18.5567 61.1163 18.17C60.6563 17.7767 59.9263 17.58 58.9263 17.58H56.0363V22.15H58.9363ZM56.0363 11.43V15.93H58.3763C59.3763 15.93 60.123 15.7367 60.6163 15.35C61.1097 14.9633 61.3563 14.4067 61.3563 13.68C61.3563 12.8867 61.123 12.3133 60.6563 11.96C60.1963 11.6067 59.473 11.43 58.4863 11.43H56.0363ZM58.4863 9.6C59.4063 9.6 60.193 9.69 60.8463 9.87C61.4997 10.0433 62.0363 10.2933 62.4563 10.62C62.8763 10.9467 63.183 11.3467 63.3763 11.82C63.5763 12.2867 63.6763 12.8133 63.6763 13.4C63.6763 13.74 63.623 14.07 63.5163 14.39C63.4163 14.7033 63.2563 15 63.0363 15.28C62.823 15.5533 62.553 15.8 62.2263 16.02C61.8997 16.24 61.513 16.4233 61.0663 16.57C63.1063 17.0033 64.1263 18.0867 64.1263 19.82C64.1263 20.4333 64.0097 20.9967 63.7763 21.51C63.5497 22.0167 63.2163 22.4567 62.7763 22.83C62.343 23.1967 61.8063 23.4833 61.1663 23.69C60.5263 23.8967 59.7963 24 58.9763 24H53.6963V9.6H58.4863ZM71.6565 19.54C70.8898 19.5667 70.2432 19.63 69.7165 19.73C69.1898 19.8233 68.7632 19.9467 68.4365 20.1C68.1098 20.2467 67.8732 20.4233 67.7265 20.63C67.5865 20.8367 67.5165 21.0633 67.5165 21.31C67.5165 21.55 67.5532 21.7567 67.6265 21.93C67.7065 22.0967 67.8132 22.2367 67.9465 22.35C68.0865 22.4567 68.2465 22.5367 68.4265 22.59C68.6132 22.6367 68.8165 22.66 69.0365 22.66C69.5965 22.66 70.0765 22.5567 70.4765 22.35C70.8832 22.1367 71.2765 21.83 71.6565 21.43V19.54ZM65.9565 15.22C67.1098 14.1467 68.4832 13.61 70.0765 13.61C70.6632 13.61 71.1832 13.7067 71.6365 13.9C72.0965 14.0867 72.4798 14.3533 72.7865 14.7C73.0998 15.0467 73.3365 15.46 73.4965 15.94C73.6632 16.4133 73.7465 16.94 73.7465 17.52V24H72.7865C72.5798 24 72.4232 23.97 72.3165 23.91C72.2098 23.8433 72.1198 23.7133 72.0465 23.52L71.8365 22.69C71.5765 22.9233 71.3198 23.1333 71.0665 23.32C70.8132 23.5 70.5498 23.6533 70.2765 23.78C70.0098 23.9067 69.7198 24 69.4065 24.06C69.0998 24.1267 68.7598 24.16 68.3865 24.16C67.9732 24.16 67.5865 24.1033 67.2265 23.99C66.8732 23.8767 66.5665 23.7067 66.3065 23.48C66.0465 23.2467 65.8398 22.96 65.6865 22.62C65.5398 22.28 65.4665 21.88 65.4665 21.42C65.4665 21.0267 65.5698 20.6433 65.7765 20.27C65.9898 19.8967 66.3365 19.5633 66.8165 19.27C67.3032 18.97 67.9398 18.7233 68.7265 18.53C69.5198 18.3367 70.4965 18.2267 71.6565 18.2V17.52C71.6565 16.7867 71.4998 16.24 71.1865 15.88C70.8732 15.52 70.4132 15.34 69.8065 15.34C69.3932 15.34 69.0465 15.3933 68.7665 15.5C68.4865 15.6 68.2432 15.71 68.0365 15.83C67.8298 15.95 67.6465 16.0633 67.4865 16.17C67.3265 16.27 67.1565 16.32 66.9765 16.32C66.8298 16.32 66.7032 16.2833 66.5965 16.21C66.4965 16.13 66.4132 16.0333 66.3465 15.92L65.9565 15.22ZM83.4751 15.8C83.4084 15.8867 83.3451 15.9533 83.2851 16C83.2251 16.0467 83.1384 16.07 83.0251 16.07C82.9117 16.07 82.7917 16.03 82.6651 15.95C82.5451 15.87 82.3984 15.7833 82.2251 15.69C82.0584 15.59 81.8551 15.5 81.6151 15.42C81.3751 15.34 81.0751 15.3 80.7151 15.3C80.2484 15.3 79.8384 15.3833 79.4851 15.55C79.1384 15.7167 78.8451 15.9567 78.6051 16.27C78.3717 16.5767 78.1951 16.9533 78.0751 17.4C77.9617 17.84 77.9051 18.3367 77.9051 18.89C77.9051 19.4633 77.9684 19.9733 78.0951 20.42C78.2217 20.8667 78.4017 21.2433 78.6351 21.55C78.8751 21.8567 79.1617 22.09 79.4951 22.25C79.8351 22.41 80.2151 22.49 80.6351 22.49C81.0484 22.49 81.3851 22.44 81.6451 22.34C81.9051 22.24 82.1217 22.13 82.2951 22.01C82.4684 21.89 82.6151 21.78 82.7351 21.68C82.8617 21.58 82.9951 21.53 83.1351 21.53C83.3084 21.53 83.4417 21.5967 83.5351 21.73L84.1451 22.52C83.8984 22.82 83.6251 23.0733 83.3251 23.28C83.0251 23.4867 82.7084 23.6567 82.3751 23.79C82.0417 23.9167 81.6951 24.0067 81.3351 24.06C80.9751 24.12 80.6117 24.15 80.2451 24.15C79.6117 24.15 79.0184 24.0333 78.4651 23.8C77.9184 23.56 77.4384 23.2167 77.0251 22.77C76.6184 22.3167 76.2951 21.7667 76.0551 21.12C75.8217 20.4667 75.7051 19.7233 75.7051 18.89C75.7051 18.1367 75.8117 17.44 76.0251 16.8C76.2384 16.1533 76.5484 15.5967 76.9551 15.13C77.3684 14.6633 77.8784 14.3 78.4851 14.04C79.0917 13.7733 79.7917 13.64 80.5851 13.64C81.3251 13.64 81.9751 13.76 82.5351 14C83.1017 14.24 83.6051 14.58 84.0451 15.02L83.4751 15.8ZM88.0245 9.2V17.78H88.4845C88.6311 17.78 88.7511 17.76 88.8445 17.72C88.9378 17.68 89.0345 17.5967 89.1345 17.47L91.9945 14.2C92.0945 14.0667 92.2045 13.9667 92.3245 13.9C92.4445 13.8333 92.5978 13.8 92.7845 13.8H94.7345L91.2945 17.68C91.0945 17.94 90.8745 18.1467 90.6345 18.3C90.7678 18.3933 90.8845 18.5 90.9845 18.62C91.0845 18.7333 91.1811 18.8633 91.2745 19.01L94.9445 24H93.0245C92.8511 24 92.7011 23.9733 92.5745 23.92C92.4545 23.86 92.3478 23.7533 92.2545 23.6L89.3045 19.6C89.2045 19.4467 89.1045 19.35 89.0045 19.31C88.9045 19.2633 88.7545 19.24 88.5545 19.24H88.0245V24H85.8745V9.2H88.0245Z" fill="white"/>
</g>
<defs>
<filter id="filter0_d_639_4603" x="1.36279" y="7.87305" width="35.6372" height="26.5244" filterUnits="userSpaceOnUse" color-interpolation-filters="sRGB">
<feFlood flood-opacity="0" result="BackgroundImageFix"/>
<feColorMatrix in="SourceAlpha" type="matrix" values="0 0 0 0 0 0 0 0 0 0 0 0 0 0 0 0 0 0 127 0" result="hardAlpha"/>
<feOffset dy="4"/>
<feGaussianBlur stdDeviation="2"/>
<feComposite in2="hardAlpha" operator="out"/>
<feColorMatrix type="matrix" values="0 0 0 0 0 0 0 0 0 0 0 0 0 0 0 0 0 0 0.25 0"/>
<feBlend mode="normal" in2="BackgroundImageFix" result="effect1_dropShadow_639_4603"/>
<feBlend mode="normal" in="SourceGraphic" in2="effect1_dropShadow_639_4603" result="shape"/>
</filter>
<filter id="filter1_d_639_4603" x="49.6963" y="9.2002" width="49.248" height="22.96" filterUnits="userSpaceOnUse" color-interpolation-filters="sRGB">
<feFlood flood-opacity="0" result="BackgroundImageFix"/>
<feColorMatrix in="SourceAlpha" type="matrix" values="0 0 0 0 0 0 0 0 0 0 0 0 0 0 0 0 0 0 127 0" result="hardAlpha"/>
<feOffset dy="4"/>
<feGaussianBlur stdDeviation="2"/>
<feComposite in2="hardAlpha" operator="out"/>
<feColorMatrix type="matrix" values="0 0 0 0 0 0 0 0 0 0 0 0 0 0 0 0 0 0 0.25 0"/>
<feBlend mode="normal" in2="BackgroundImageFix" result="effect1_dropShadow_639_4603"/>
<feBlend mode="normal" in="SourceGraphic" in2="effect1_dropShadow_639_4603" result="shape"/>
</filter>
</defs>
</svg>
