<svg width="131" height="37" viewBox="0 0 131 37" fill="none" xmlns="http://www.w3.org/2000/svg">
<g opacity="0.8">
<g opacity="0.8" filter="url(#filter0_d_153_3815)">
<path d="M31.2727 15.813H10.7866L17.0568 10.0445C17.35 9.77431 17.4911 9.42598 17.4489 9.07613C17.4068 8.72628 17.185 8.40358 16.8323 8.179C16.4795 7.95443 16.0247 7.84639 15.568 7.87865C15.1112 7.9109 14.6899 8.08081 14.3967 8.351L5.76008 16.2893C5.70197 16.3524 5.65001 16.4187 5.60462 16.4877C5.60462 16.5539 5.60462 16.5936 5.48371 16.6597C5.40541 16.8114 5.36442 16.9729 5.36279 17.136C5.36442 17.2991 5.40541 17.4606 5.48371 17.6123C5.48371 17.6785 5.48371 17.7181 5.60462 17.7843C5.65001 17.8533 5.70197 17.9196 5.76008 17.9828L14.3967 25.921C14.5591 26.0704 14.7625 26.1905 14.9924 26.2728C15.2223 26.3551 15.473 26.3976 15.7268 26.3973C16.1304 26.3979 16.5215 26.2902 16.8323 26.093C17.0072 25.9819 17.1517 25.8455 17.2577 25.6916C17.3637 25.5377 17.429 25.3692 17.4498 25.1959C17.4707 25.0227 17.4467 24.8479 17.3793 24.6817C17.3118 24.5156 17.2023 24.3612 17.0568 24.2275L10.7866 18.459H31.2727C31.7308 18.459 32.1702 18.3197 32.4941 18.0715C32.8181 17.8234 33.0001 17.4869 33.0001 17.136C33.0001 16.7851 32.8181 16.4486 32.4941 16.2005C32.1702 15.9524 31.7308 15.813 31.2727 15.813Z" fill="white"/>
</g>
</g>
<g opacity="0.8" filter="url(#filter1_d_153_3815)">
<path d="M60.2843 9.6V24H57.9443V17.59H50.7143V24H48.3643V9.6H50.7143V15.9H57.9443V9.6H60.2843ZM67.4134 13.64C68.1667 13.64 68.8467 13.7633 69.4534 14.01C70.0667 14.2567 70.5867 14.6067 71.0134 15.06C71.4467 15.5133 71.78 16.0633 72.0134 16.71C72.2467 17.3567 72.3634 18.0833 72.3634 18.89C72.3634 19.6967 72.2467 20.4233 72.0134 21.07C71.78 21.7167 71.4467 22.27 71.0134 22.73C70.5867 23.1833 70.0667 23.5333 69.4534 23.78C68.8467 24.0267 68.1667 24.15 67.4134 24.15C66.6534 24.15 65.9667 24.0267 65.3534 23.78C64.7467 23.5333 64.2267 23.1833 63.7934 22.73C63.36 22.27 63.0267 21.7167 62.7934 21.07C62.56 20.4233 62.4434 19.6967 62.4434 18.89C62.4434 18.0833 62.56 17.3567 62.7934 16.71C63.0267 16.0633 63.36 15.5133 63.7934 15.06C64.2267 14.6067 64.7467 14.2567 65.3534 14.01C65.9667 13.7633 66.6534 13.64 67.4134 13.64ZM67.4134 22.47C68.3334 22.47 69.0167 22.1633 69.4634 21.55C69.9167 20.93 70.1434 20.0467 70.1434 18.9C70.1434 17.7533 69.9167 16.87 69.4634 16.25C69.0167 15.6233 68.3334 15.31 67.4134 15.31C66.48 15.31 65.7867 15.6233 65.3334 16.25C64.88 16.87 64.6534 17.7533 64.6534 18.9C64.6534 20.0467 64.88 20.93 65.3334 21.55C65.7867 22.1633 66.48 22.47 67.4134 22.47ZM74.4291 24V13.8H75.7291C76.0225 13.8 76.2091 13.9367 76.2891 14.21L76.4291 15.1C76.6158 14.8867 76.8091 14.6933 77.0091 14.52C77.2091 14.34 77.4225 14.1867 77.6491 14.06C77.8825 13.9267 78.1291 13.8233 78.3891 13.75C78.6558 13.6767 78.9425 13.64 79.2491 13.64C79.5758 13.64 79.8758 13.6867 80.1491 13.78C80.4225 13.8733 80.6625 14.0067 80.8691 14.18C81.0825 14.3533 81.2658 14.5633 81.4191 14.81C81.5725 15.0567 81.6991 15.3333 81.7991 15.64C81.9525 15.2867 82.1458 14.9833 82.3791 14.73C82.6125 14.4767 82.8725 14.27 83.1591 14.11C83.4458 13.95 83.7491 13.8333 84.0691 13.76C84.3958 13.68 84.7258 13.64 85.0591 13.64C85.6058 13.64 86.0925 13.7267 86.5191 13.9C86.9525 14.0733 87.3158 14.3267 87.6091 14.66C87.9091 14.9867 88.1358 15.39 88.2891 15.87C88.4425 16.35 88.5191 16.8967 88.5191 17.51V24H86.3691V17.51C86.3691 16.79 86.2125 16.25 85.8991 15.89C85.5925 15.5233 85.1358 15.34 84.5291 15.34C84.2558 15.34 83.9991 15.3867 83.7591 15.48C83.5191 15.5733 83.3091 15.71 83.1291 15.89C82.9491 16.07 82.8058 16.2967 82.6991 16.57C82.5991 16.8367 82.5491 17.15 82.5491 17.51V24H80.3991V17.51C80.3991 16.7633 80.2491 16.2167 79.9491 15.87C79.6491 15.5167 79.2091 15.34 78.6291 15.34C78.2291 15.34 77.8591 15.4433 77.5191 15.65C77.1791 15.85 76.8658 16.1267 76.5791 16.48V24H74.4291ZM97.7207 17.75C97.7207 17.39 97.6674 17.0567 97.5607 16.75C97.4607 16.4367 97.3107 16.1667 97.1107 15.94C96.9107 15.7067 96.6607 15.5267 96.3607 15.4C96.0674 15.2667 95.7274 15.2 95.3407 15.2C94.5607 15.2 93.9474 15.4233 93.5007 15.87C93.054 16.3167 92.7707 16.9433 92.6507 17.75H97.7207ZM92.5907 19.07C92.6174 19.65 92.7074 20.1533 92.8607 20.58C93.014 21 93.2174 21.35 93.4707 21.63C93.7307 21.91 94.0374 22.12 94.3907 22.26C94.7507 22.3933 95.1507 22.46 95.5907 22.46C96.0107 22.46 96.374 22.4133 96.6807 22.32C96.9874 22.22 97.254 22.1133 97.4807 22C97.7074 21.88 97.9007 21.7733 98.0607 21.68C98.2207 21.58 98.3674 21.53 98.5007 21.53C98.674 21.53 98.8074 21.5967 98.9007 21.73L99.5107 22.52C99.2574 22.82 98.9707 23.0733 98.6507 23.28C98.3307 23.4867 97.9907 23.6567 97.6307 23.79C97.2707 23.9167 96.9007 24.0067 96.5207 24.06C96.1407 24.12 95.7707 24.15 95.4107 24.15C94.704 24.15 94.0474 24.0333 93.4407 23.8C92.8407 23.56 92.3174 23.21 91.8707 22.75C91.4307 22.29 91.084 21.72 90.8307 21.04C90.584 20.36 90.4607 19.5767 90.4607 18.69C90.4607 17.9833 90.5707 17.3233 90.7907 16.71C91.0174 16.0967 91.3374 15.5633 91.7507 15.11C92.1707 14.6567 92.6774 14.3 93.2707 14.04C93.8707 13.7733 94.5474 13.64 95.3007 13.64C95.9274 13.64 96.5074 13.7433 97.0407 13.95C97.574 14.15 98.034 14.4467 98.4207 14.84C98.8074 15.2333 99.1074 15.7167 99.3207 16.29C99.5407 16.8567 99.6507 17.5033 99.6507 18.23C99.6507 18.5633 99.614 18.7867 99.5407 18.9C99.4674 19.0133 99.334 19.07 99.1407 19.07H92.5907Z" fill="white"/>
</g>
<defs>
<filter id="filter0_d_153_3815" x="1.36279" y="7.87305" width="35.6372" height="26.5244" filterUnits="userSpaceOnUse" color-interpolation-filters="sRGB">
<feFlood flood-opacity="0" result="BackgroundImageFix"/>
<feColorMatrix in="SourceAlpha" type="matrix" values="0 0 0 0 0 0 0 0 0 0 0 0 0 0 0 0 0 0 127 0" result="hardAlpha"/>
<feOffset dy="4"/>
<feGaussianBlur stdDeviation="2"/>
<feComposite in2="hardAlpha" operator="out"/>
<feColorMatrix type="matrix" values="0 0 0 0 0 0 0 0 0 0 0 0 0 0 0 0 0 0 0.25 0"/>
<feBlend mode="normal" in2="BackgroundImageFix" result="effect1_dropShadow_153_3815"/>
<feBlend mode="normal" in="SourceGraphic" in2="effect1_dropShadow_153_3815" result="shape"/>
</filter>
<filter id="filter1_d_153_3815" x="44.3643" y="9.59961" width="59.2866" height="22.5508" filterUnits="userSpaceOnUse" color-interpolation-filters="sRGB">
<feFlood flood-opacity="0" result="BackgroundImageFix"/>
<feColorMatrix in="SourceAlpha" type="matrix" values="0 0 0 0 0 0 0 0 0 0 0 0 0 0 0 0 0 0 127 0" result="hardAlpha"/>
<feOffset dy="4"/>
<feGaussianBlur stdDeviation="2"/>
<feComposite in2="hardAlpha" operator="out"/>
<feColorMatrix type="matrix" values="0 0 0 0 0 0 0 0 0 0 0 0 0 0 0 0 0 0 0.25 0"/>
<feBlend mode="normal" in2="BackgroundImageFix" result="effect1_dropShadow_153_3815"/>
<feBlend mode="normal" in="SourceGraphic" in2="effect1_dropShadow_153_3815" result="shape"/>
</filter>
</defs>
</svg>
