<svg width="177" height="87" viewBox="0 0 177 87" fill="none" xmlns="http://www.w3.org/2000/svg">
<path d="M0 20C0 8.9543 8.95431 0 20 0H177V87H20C8.95431 87 0 78.0457 0 67V20Z" fill="white"/>
<path d="M60.0781 26.5264H108.922C112.39 26.5264 115.717 27.8484 118.169 30.2016C120.622 32.5549 122 35.7466 122 39.0746V71.6818C122 72.8269 121.526 73.9252 120.682 74.7349C119.838 75.5446 118.693 75.9995 117.5 75.9995H51.5C50.3065 75.9995 49.1619 75.5446 48.318 74.7349C47.4741 73.9252 47 72.8269 47 71.6818V39.0746C47 35.7466 48.3779 32.5549 50.8305 30.2016C53.2831 27.8484 56.6096 26.5264 60.0781 26.5264Z" fill="#8BA7CC"/>
<path d="M122 71.6818V36.0912C121.996 33.553 120.942 31.1202 119.07 29.3269C117.198 27.5336 114.661 26.5264 112.016 26.5264H84.875C81.0781 36.6159 77.6719 46.6604 77.6719 47.7998V54.0064C77.6735 54.6862 77.8603 55.3538 78.2139 55.9429C78.5675 56.532 79.0755 57.0221 79.6875 57.3646L109.734 74.0056C112.111 75.3163 114.805 76.0039 117.547 75.9995C118.732 75.9876 119.865 75.5275 120.699 74.7191C121.532 73.9106 122 72.8192 122 71.6818Z" fill="#8BA7CC"/>
<path d="M122 36.7513C122.001 34.1869 121.299 31.6673 119.963 29.4461C118.627 27.2249 116.705 25.3804 114.39 24.0982L86.0624 8.40171C85.5874 8.13854 85.0485 8 84.4999 8C83.9514 8 83.4125 8.13854 82.9374 8.40171L54.6094 24.0982C52.2947 25.3804 50.3728 27.2249 49.037 29.4461C47.7012 31.6673 46.9987 34.1869 47 36.7513C47 36.7513 47 36.7513 47 36.8413C47 36.9312 47 37.0212 47 37.0212C46.9996 37.6993 47.1858 38.3656 47.5397 38.9526C47.8936 39.5396 48.4027 40.0266 49.0156 40.3643L82.9374 59.1941C83.4125 59.4573 83.9514 59.5958 84.4999 59.5958C85.0485 59.5958 85.5874 59.4573 86.0624 59.1941L119.984 40.3943C120.602 40.054 121.114 39.5623 121.468 38.9696C121.822 38.3768 122.006 37.7044 122 37.0212C122 36.9462 122 36.8862 122 36.8113C122 36.7363 122 36.7813 122 36.7513Z" fill="#0795FF"/>
<path d="M109.5 35.0426C109.5 34.58 109.405 34.1219 109.22 33.6944C109.036 33.267 108.765 32.8786 108.424 32.5515C108.083 32.2243 107.679 31.9648 107.233 31.7877C106.788 31.6107 106.31 31.5196 105.828 31.5196H63.1875C62.704 31.5176 62.2248 31.6073 61.7775 31.7834C61.3302 31.9596 60.9236 32.2188 60.581 32.5461C60.2384 32.8735 59.9665 33.2625 59.781 33.6909C59.5955 34.1194 59.5 34.5787 59.5 35.0426V46.2116L82.9375 59.1945C83.4125 59.4577 83.9514 59.5962 84.5 59.5962C85.0485 59.5962 85.5874 59.4577 86.0624 59.1945L109.5 46.2116V35.0426Z" fill="white"/>
<path d="M87.625 37.0215H81.375C81.073 37.0215 80.8281 37.2564 80.8281 37.5462V51.8634C80.8281 52.1532 81.073 52.3881 81.375 52.3881H87.625C87.927 52.3881 88.1719 52.1532 88.1719 51.8634V37.5462C88.1719 37.2564 87.927 37.0215 87.625 37.0215Z" fill="#DFE8F4"/>
<path d="M92.5156 47.7109V41.7142C92.5156 41.4244 92.2708 41.1895 91.9688 41.1895H77.0469C76.7449 41.1895 76.5 41.4244 76.5 41.7142V47.7109C76.5 48.0007 76.7449 48.2356 77.0469 48.2356H91.9688C92.2708 48.2356 92.5156 48.0007 92.5156 47.7109Z" fill="#DFE8F4"/>
</svg>
