<svg width="95" height="95" viewBox="0 0 95 95" fill="none" xmlns="http://www.w3.org/2000/svg">
<path d="M83.1248 11.875C84.1747 11.875 85.1815 12.292 85.9238 13.0344C86.6661 13.7767 87.0832 14.7835 87.0832 15.8333V79.1667C87.0832 80.2165 86.6661 81.2233 85.9238 81.9656C85.1815 82.708 84.1747 83.125 83.1248 83.125H11.8748C10.825 83.125 9.8182 82.708 9.07587 81.9656C8.33354 81.2233 7.9165 80.2165 7.9165 79.1667V15.8333C7.9165 14.7835 8.33354 13.7767 9.07587 13.0344C9.8182 12.292 10.825 11.875 11.8748 11.875H83.1248ZM79.1665 19.7917H15.8332V75.2083H79.1665V19.7917ZM37.2042 31.6667L49.8669 63.3333H41.3367L39.7534 59.375H26.7305L25.1471 63.3333H16.6209L29.2875 31.6667H37.2042ZM75.2082 63.3333H63.3332C60.1837 63.3333 57.1633 62.0822 54.9363 59.8552C52.7093 57.6282 51.4582 54.6078 51.4582 51.4583C51.4582 48.3089 52.7093 45.2884 54.9363 43.0614C57.1633 40.8344 60.1837 39.5833 63.3332 39.5833H67.2875L67.2915 31.6667H75.2082V63.3333ZM67.2915 47.5H63.3332C62.3243 47.5011 61.3539 47.8874 60.6203 48.58C59.8866 49.2726 59.4452 50.2192 59.386 51.2264C59.3269 52.2335 59.6546 53.2253 60.3021 53.9989C60.9497 54.7726 61.8682 55.2698 62.87 55.389L63.3332 55.4167H67.2915V47.5ZM33.2459 43.0865L29.8932 51.4583H36.5907L33.2459 43.0865Z" fill="white"/>
<path d="M83.1248 11.875C84.1747 11.875 85.1815 12.292 85.9238 13.0344C86.6661 13.7767 87.0832 14.7835 87.0832 15.8333V79.1667C87.0832 80.2165 86.6661 81.2233 85.9238 81.9656C85.1815 82.708 84.1747 83.125 83.1248 83.125H11.8748C10.825 83.125 9.8182 82.708 9.07587 81.9656C8.33354 81.2233 7.9165 80.2165 7.9165 79.1667V15.8333C7.9165 14.7835 8.33354 13.7767 9.07587 13.0344C9.8182 12.292 10.825 11.875 11.8748 11.875H83.1248ZM79.1665 19.7917H15.8332V75.2083H79.1665V19.7917ZM37.2042 31.6667L49.8669 63.3333H41.3367L39.7534 59.375H26.7305L25.1471 63.3333H16.6209L29.2875 31.6667H37.2042ZM75.2082 63.3333H63.3332C60.1837 63.3333 57.1633 62.0822 54.9363 59.8552C52.7093 57.6282 51.4582 54.6078 51.4582 51.4583C51.4582 48.3089 52.7093 45.2884 54.9363 43.0614C57.1633 40.8344 60.1837 39.5833 63.3332 39.5833H67.2875L67.2915 31.6667H75.2082V63.3333ZM67.2915 47.5H63.3332C62.3243 47.5011 61.3539 47.8874 60.6203 48.58C59.8866 49.2726 59.4452 50.2192 59.386 51.2264C59.3269 52.2335 59.6546 53.2253 60.3021 53.9989C60.9497 54.7726 61.8682 55.2698 62.87 55.389L63.3332 55.4167H67.2915V47.5ZM33.2459 43.0865L29.8932 51.4583H36.5907L33.2459 43.0865Z" stroke="white"/>
<path d="M47.413 20.6475C32.209 20.6475 19.8828 32.6312 19.8828 47.4138C19.8828 62.1937 32.209 74.1784 47.413 74.1784C62.617 74.1784 74.9432 62.1937 74.9432 47.4138C74.9432 32.6312 62.617 20.6475 47.413 20.6475ZM67.6018 47.4138C67.6018 51.5437 66.2868 55.3739 64.0449 58.5349L35.9724 31.243C39.2246 29.0634 43.1642 27.7849 47.413 27.7849C58.5627 27.7849 67.6018 36.5738 67.6018 47.4138ZM27.2242 47.4138C27.2242 43.283 28.5401 39.452 30.7811 36.2901L58.8536 63.5828C55.6023 65.7624 51.6618 67.0418 47.413 67.0418C36.2633 67.0418 27.2242 58.252 27.2242 47.4138Z" fill="white" fill-opacity="0.78"/>
</svg>
