<svg width="78" height="78" viewBox="0 0 78 78" fill="none" xmlns="http://www.w3.org/2000/svg">
<path d="M61.3489 9.68652H16.1443C12.5925 9.68652 9.68652 12.5925 9.68652 16.1443V61.3489C9.68652 64.9007 12.5925 67.8067 16.1443 67.8067H61.3489C64.9007 67.8067 67.8067 64.9007 67.8067 61.3489V16.1443C67.8067 12.5925 64.9007 9.68652 61.3489 9.68652ZM33.9033 43.59H30.6744V48.4333H25.831V43.59H16.1443V29.0599H20.9877V38.7466H25.831V29.0599H30.6744V38.7466H33.9033V43.59ZM51.6622 48.4333H46.0117L40.3611 41.1683V48.4333H35.5177V29.0599H40.3611V36.325L46.0117 29.0599H51.6622L44.3972 38.7466L51.6622 48.4333ZM64.5778 40.3611H59.7345V45.2044H56.5056V40.3611H51.6622V37.1322H56.5056V32.2888H59.7345V37.1322H64.5778V40.3611Z" fill="white"/>
</svg>
