<svg width="46" height="36" viewBox="0 0 46 36" fill="none" xmlns="http://www.w3.org/2000/svg">
<path d="M8.34732 35.5602V33.1922C8.34732 32.2841 7.79462 31.6923 6.88744 31.6923C6.41098 31.6923 5.90117 31.8505 5.54573 32.3593C5.26938 31.9248 4.87868 31.6923 4.28311 31.6923C4.06167 31.6827 3.84131 31.7282 3.64176 31.8246C3.4422 31.9211 3.26967 32.0655 3.1396 32.245V31.7685H2.38965V35.5573H3.1396V33.3894C3.1396 32.7224 3.53411 32.4032 4.0868 32.4032C4.6395 32.4032 4.95492 32.7586 4.95492 33.3894V35.5602H5.70487V33.3894C5.70487 32.7224 6.09938 32.4032 6.65207 32.4032C7.20477 32.4032 7.52018 32.7586 7.52018 33.3894V35.5602H8.34732ZM20.661 31.8105H19.2792V30.6669H18.5312V31.8105H17.7422V32.4775H18.5312V34.2576C18.5312 35.1257 18.8466 35.6393 19.7938 35.6393C20.1527 35.6318 20.5043 35.537 20.8182 35.3629L20.5809 34.6959C20.368 34.829 20.1211 34.8975 19.8701 34.8932C19.4755 34.8932 19.2783 34.6559 19.2783 34.2614V32.447H20.66V31.8152L20.661 31.8105ZM27.6859 31.6923C27.4817 31.6877 27.2797 31.7363 27.0998 31.8332C26.9199 31.93 26.7683 32.0719 26.6596 32.245V31.7685H25.9097V35.5573H26.6596V33.4295C26.6596 32.7977 26.9751 32.4032 27.4887 32.4032C27.662 32.4102 27.834 32.4367 28.0014 32.4823L28.2386 31.7714C28.0577 31.7258 27.8724 31.6993 27.6859 31.6923ZM17.0694 32.0868C16.6749 31.8105 16.1222 31.6923 15.5305 31.6923C14.5832 31.6923 13.9915 32.1268 13.9915 32.8768C13.9915 33.5086 14.426 33.863 15.2541 33.9822L15.6486 34.0212C16.0831 34.1003 16.3595 34.2585 16.3595 34.4558C16.3595 34.7321 16.0441 34.9322 15.4514 34.9322C14.9988 34.9415 14.5555 34.803 14.1887 34.5377L13.7942 35.1295C14.3469 35.524 15.0178 35.6059 15.4142 35.6059C16.5196 35.6059 17.1113 35.0933 17.1113 34.3824C17.1113 33.7153 16.6349 33.3961 15.8087 33.277L15.4142 33.2379C15.0588 33.1989 14.7471 33.0797 14.7471 32.8434C14.7471 32.5671 15.0626 32.367 15.4971 32.367C15.9736 32.367 16.4443 32.5642 16.6816 32.6824L17.0694 32.0868ZM28.515 33.6658C28.515 34.8093 29.2649 35.6393 30.4885 35.6393C31.0412 35.6393 31.4357 35.5211 31.8302 35.2048L31.4357 34.613C31.1564 34.8392 30.8088 34.9645 30.4494 34.9684C29.7824 34.9684 29.2649 34.4558 29.2649 33.7058C29.2649 32.9559 29.7757 32.447 30.4494 32.447C30.8088 32.451 31.1564 32.5762 31.4357 32.8024L31.8302 32.2107C31.4357 31.8953 31.0412 31.7761 30.4885 31.7761C29.304 31.6971 28.515 32.5261 28.515 33.6706V33.6658ZM23.2263 31.6923C22.1209 31.6923 21.3709 32.4813 21.3709 33.6658C21.3709 34.8503 22.1599 35.6393 23.3044 35.6393C23.8612 35.6511 24.4049 35.4699 24.8434 35.1266L24.4489 34.5739C24.1317 34.8197 23.7445 34.9579 23.3435 34.9684C22.8308 34.9684 22.2781 34.653 22.2 33.9822H25.0025V33.6667C25.0025 32.4823 24.2916 31.6932 23.2263 31.6932V31.6923ZM23.1872 32.4032C23.7399 32.4032 24.1344 32.7586 24.1735 33.3504H22.1218C22.24 32.7977 22.5983 32.4032 23.1872 32.4032ZM12.9652 33.6658V31.7714H12.2152V32.2478C11.9389 31.8924 11.5482 31.6951 10.9917 31.6951C9.92631 31.6951 9.13634 32.5242 9.13634 33.6687C9.13634 34.8131 9.92536 35.6422 10.9917 35.6422C11.5444 35.6422 11.9389 35.4449 12.2152 35.0895V35.5659H12.9652V33.6658ZM9.92631 33.6658C9.92631 32.9549 10.3608 32.4032 11.1108 32.4032C11.8217 32.4032 12.2543 32.9559 12.2543 33.6658C12.2543 34.4157 11.7778 34.9284 11.1108 34.9284C10.3608 34.9675 9.92631 34.3757 9.92631 33.6658ZM39.0934 31.6923C38.8891 31.6877 38.6871 31.7363 38.5073 31.8332C38.3274 31.93 38.1757 32.0719 38.0671 32.245V31.7685H37.3171V35.5573H38.0661V33.4295C38.0661 32.7977 38.3815 32.4032 38.8952 32.4032C39.0685 32.4102 39.2405 32.4367 39.4078 32.4823L39.6451 31.7714C39.4642 31.7258 39.2789 31.6993 39.0924 31.6923H39.0934ZM36.1727 33.6658V31.7714H35.4227V32.2478C35.1464 31.8924 34.7557 31.6951 34.1992 31.6951C33.1338 31.6951 32.3438 32.5242 32.3438 33.6687C32.3438 34.8131 33.1328 35.6422 34.1992 35.6422C34.7519 35.6422 35.1464 35.4449 35.4227 35.0895V35.5659H36.1727V33.6658ZM33.1338 33.6658C33.1338 32.9549 33.5683 32.4032 34.3183 32.4032C35.0292 32.4032 35.4618 32.9559 35.4618 33.6658C35.4618 34.4157 34.9853 34.9284 34.3183 34.9284C33.5683 34.9675 33.1338 34.3757 33.1338 33.6658ZM43.7903 33.6658V30.2715H43.0404V32.245C42.764 31.8895 42.3733 31.6923 41.8168 31.6923C40.7515 31.6923 39.9615 32.5213 39.9615 33.6658C39.9615 34.8103 40.7505 35.6393 41.8168 35.6393C42.3695 35.6393 42.764 35.442 43.0404 35.0866V35.5631H43.7903V33.6658ZM40.7515 33.6658C40.7515 32.9549 41.186 32.4032 41.9359 32.4032C42.6468 32.4032 43.0794 32.9559 43.0794 33.6658C43.0794 34.4157 42.603 34.9284 41.9359 34.9284C41.185 34.9684 40.7505 34.3767 40.7505 33.6658H40.7515Z" fill="white"/>
<path d="M16.2012 3.03906H29.8966V25.3775H16.2012V3.03906Z" fill="#FF5F00"/>
<path d="M17.5829 14.2081C17.5834 12.0591 18.07 9.9381 19.0063 8.00385C19.9427 6.0696 21.3045 4.37224 22.9898 3.03888C20.8939 1.391 18.3766 0.36609 15.7258 0.0812985C13.0749 -0.203493 10.3974 0.26333 7.99928 1.4284C5.60119 2.59348 3.57929 4.40978 2.16473 6.6697C0.750159 8.92962 0 11.542 0 14.2081C0 16.8742 0.750159 19.4865 2.16473 21.7465C3.57929 24.0064 5.60119 25.8227 7.99928 26.9878C10.3974 28.1528 13.0749 28.6197 15.7258 28.3349C18.3766 28.0501 20.8939 27.0252 22.9898 25.3773C21.3045 24.0439 19.9427 22.3466 19.0063 20.4123C18.07 18.4781 17.5834 16.357 17.5829 14.2081Z" fill="#EB001B"/>
<path d="M46.0001 14.208C46.002 16.8722 45.2541 19.4831 43.8419 21.7422C42.4296 24.0013 40.4101 25.8173 38.0142 26.9825C35.6183 28.1477 32.9429 28.6151 30.2939 28.3312C27.6449 28.0473 25.1292 27.0236 23.0347 25.3772C24.7204 24.0442 26.0824 22.3469 27.0189 20.4126C27.9553 18.4782 28.4417 16.357 28.4417 14.208C28.4417 12.0589 27.9553 9.93773 27.0189 8.0034C26.0824 6.06908 24.7204 4.3718 23.0347 3.03878C25.1292 1.39233 27.6449 0.368615 30.2939 0.0847256C32.9429 -0.199163 35.6183 0.268233 38.0142 1.43346C40.4101 2.59868 42.4296 4.41468 43.8419 6.67377C45.2541 8.93285 46.002 11.5438 46.0001 14.208Z" fill="#F79E1B"/>
</svg>
