<svg width="458" height="179" viewBox="0 0 458 179" fill="none" xmlns="http://www.w3.org/2000/svg">
<rect opacity="0.7" width="458" height="179" rx="10" fill="#393F6D"/>
<path d="M33.8182 162V138.727H41.6818C43.5 138.727 44.9924 139.038 46.1591 139.659C47.3258 140.273 48.1894 141.117 48.75 142.193C49.3106 143.269 49.5909 144.492 49.5909 145.864C49.5909 147.235 49.3106 148.451 48.75 149.511C48.1894 150.572 47.3295 151.405 46.1705 152.011C45.0114 152.61 43.5303 152.909 41.7273 152.909H35.3636V150.364H41.6364C42.8788 150.364 43.8788 150.182 44.6364 149.818C45.4015 149.455 45.9545 148.939 46.2955 148.273C46.6439 147.598 46.8182 146.795 46.8182 145.864C46.8182 144.932 46.6439 144.117 46.2955 143.42C45.947 142.723 45.3902 142.186 44.625 141.807C43.8598 141.42 42.8485 141.227 41.5909 141.227H36.6364V162H33.8182ZM44.7727 151.545L50.5 162H47.2273L41.5909 151.545H44.7727ZM53.9233 168.545V144.545H56.5142V147.318H56.8324C57.0294 147.015 57.3021 146.629 57.6506 146.159C58.0066 145.682 58.5142 145.258 59.1733 144.886C59.84 144.508 60.7415 144.318 61.8778 144.318C63.3475 144.318 64.643 144.686 65.7642 145.42C66.8854 146.155 67.7604 147.197 68.3892 148.545C69.018 149.894 69.3324 151.485 69.3324 153.318C69.3324 155.167 69.018 156.769 68.3892 158.125C67.7604 159.473 66.8892 160.519 65.7756 161.261C64.6619 161.996 63.3778 162.364 61.9233 162.364C60.8021 162.364 59.9044 162.178 59.2301 161.807C58.5559 161.428 58.0369 161 57.6733 160.523C57.3097 160.038 57.0294 159.636 56.8324 159.318H56.6051V168.545H53.9233ZM56.5597 153.273C56.5597 154.591 56.7528 155.754 57.1392 156.761C57.5256 157.761 58.09 158.545 58.8324 159.114C59.5748 159.674 60.4839 159.955 61.5597 159.955C62.6809 159.955 63.6165 159.659 64.3665 159.068C65.1241 158.47 65.6922 157.667 66.071 156.659C66.4574 155.644 66.6506 154.515 66.6506 153.273C66.6506 152.045 66.4612 150.939 66.0824 149.955C65.7112 148.962 65.1468 148.178 64.3892 147.602C63.6392 147.019 62.696 146.727 61.5597 146.727C60.4688 146.727 59.5521 147.004 58.8097 147.557C58.0672 148.102 57.5066 148.867 57.1278 149.852C56.7491 150.83 56.5597 151.97 56.5597 153.273ZM75.3778 162.182C74.8172 162.182 74.3362 161.981 73.9347 161.58C73.5331 161.178 73.3324 160.697 73.3324 160.136C73.3324 159.576 73.5331 159.095 73.9347 158.693C74.3362 158.292 74.8172 158.091 75.3778 158.091C75.9384 158.091 76.4195 158.292 76.821 158.693C77.2225 159.095 77.4233 159.576 77.4233 160.136C77.4233 160.508 77.3286 160.848 77.1392 161.159C76.9574 161.47 76.7112 161.72 76.4006 161.909C76.0975 162.091 75.7566 162.182 75.3778 162.182ZM101.626 135.818V162H96.0906V141.072H95.9371L89.9414 144.831V139.922L96.4229 135.818H101.626ZM111.678 162.369C110.741 162.369 109.936 162.038 109.263 161.375C108.601 160.703 108.269 159.898 108.269 158.96C108.269 158.032 108.601 157.237 109.263 156.574C109.936 155.911 110.741 155.58 111.678 155.58C112.587 155.58 113.383 155.911 114.065 156.574C114.746 157.237 115.087 158.032 115.087 158.96C115.087 159.585 114.926 160.158 114.604 160.679C114.292 161.19 113.88 161.602 113.369 161.915C112.857 162.218 112.294 162.369 111.678 162.369ZM130.233 162.639C127.79 162.63 125.688 162.028 123.926 160.835C122.174 159.642 120.825 157.914 119.878 155.651C118.94 153.387 118.476 150.665 118.486 147.483C118.486 144.311 118.955 141.607 119.892 139.372C120.839 137.137 122.188 135.437 123.94 134.273C125.702 133.098 127.799 132.511 130.233 132.511C132.667 132.511 134.759 133.098 136.511 134.273C138.273 135.447 139.627 137.152 140.574 139.386C141.521 141.612 141.99 144.311 141.98 147.483C141.98 150.674 141.507 153.402 140.56 155.665C139.622 157.928 138.277 159.656 136.526 160.849C134.774 162.043 132.676 162.639 130.233 162.639ZM130.233 157.54C131.9 157.54 133.23 156.702 134.224 155.026C135.219 153.349 135.711 150.835 135.702 147.483C135.702 145.277 135.474 143.439 135.02 141.972C134.575 140.504 133.94 139.401 133.116 138.662C132.302 137.923 131.341 137.554 130.233 137.554C128.576 137.554 127.25 138.383 126.256 140.04C125.261 141.697 124.759 144.178 124.75 147.483C124.75 149.718 124.973 151.583 125.418 153.08C125.872 154.566 126.511 155.684 127.335 156.432C128.159 157.17 129.125 157.54 130.233 157.54ZM157.772 162.639C155.329 162.63 153.227 162.028 151.465 160.835C149.713 159.642 148.364 157.914 147.417 155.651C146.479 153.387 146.015 150.665 146.025 147.483C146.025 144.311 146.494 141.607 147.431 139.372C148.378 137.137 149.728 135.437 151.479 134.273C153.241 133.098 155.338 132.511 157.772 132.511C160.206 132.511 162.299 133.098 164.05 134.273C165.812 135.447 167.166 137.152 168.113 139.386C169.06 141.612 169.529 144.311 169.519 147.483C169.519 150.674 169.046 153.402 168.099 155.665C167.161 157.928 165.817 159.656 164.065 160.849C162.313 162.043 160.215 162.639 157.772 162.639ZM157.772 157.54C159.439 157.54 160.769 156.702 161.763 155.026C162.758 153.349 163.25 150.835 163.241 147.483C163.241 145.277 163.013 143.439 162.559 141.972C162.114 140.504 161.479 139.401 160.656 138.662C159.841 137.923 158.88 137.554 157.772 137.554C156.115 137.554 154.789 138.383 153.795 140.04C152.8 141.697 152.299 144.178 152.289 147.483C152.289 149.718 152.512 151.583 152.957 153.08C153.411 154.566 154.05 155.684 154.874 156.432C155.698 157.17 156.664 157.54 157.772 157.54ZM185.311 162.639C182.868 162.63 180.766 162.028 179.004 160.835C177.252 159.642 175.903 157.914 174.956 155.651C174.018 153.387 173.554 150.665 173.564 147.483C173.564 144.311 174.033 141.607 174.97 139.372C175.917 137.137 177.267 135.437 179.018 134.273C180.78 133.098 182.877 132.511 185.311 132.511C187.745 132.511 189.838 133.098 191.589 134.273C193.351 135.447 194.705 137.152 195.652 139.386C196.599 141.612 197.068 144.311 197.058 147.483C197.058 150.674 196.585 153.402 195.638 155.665C194.7 157.928 193.356 159.656 191.604 160.849C189.852 162.043 187.754 162.639 185.311 162.639ZM185.311 157.54C186.978 157.54 188.308 156.702 189.303 155.026C190.297 153.349 190.789 150.835 190.78 147.483C190.78 145.277 190.553 143.439 190.098 141.972C189.653 140.504 189.018 139.401 188.195 138.662C187.38 137.923 186.419 137.554 185.311 137.554C183.654 137.554 182.328 138.383 181.334 140.04C180.339 141.697 179.838 144.178 179.828 147.483C179.828 149.718 180.051 151.583 180.496 153.08C180.95 154.566 181.589 155.684 182.413 156.432C183.237 157.17 184.203 157.54 185.311 157.54ZM203.866 162.369C202.928 162.369 202.123 162.038 201.451 161.375C200.788 160.703 200.457 159.898 200.457 158.96C200.457 158.032 200.788 157.237 201.451 156.574C202.123 155.911 202.928 155.58 203.866 155.58C204.775 155.58 205.57 155.911 206.252 156.574C206.934 157.237 207.275 158.032 207.275 158.96C207.275 159.585 207.114 160.158 206.792 160.679C206.479 161.19 206.067 161.602 205.556 161.915C205.045 162.218 204.481 162.369 203.866 162.369ZM222.42 162.639C219.977 162.63 217.875 162.028 216.114 160.835C214.362 159.642 213.012 157.914 212.065 155.651C211.128 153.387 210.664 150.665 210.673 147.483C210.673 144.311 211.142 141.607 212.08 139.372C213.027 137.137 214.376 135.437 216.128 134.273C217.889 133.098 219.987 132.511 222.42 132.511C224.854 132.511 226.947 133.098 228.699 134.273C230.46 135.447 231.814 137.152 232.761 139.386C233.708 141.612 234.177 144.311 234.168 147.483C234.168 150.674 233.694 153.402 232.747 155.665C231.81 157.928 230.465 159.656 228.713 160.849C226.961 162.043 224.864 162.639 222.42 162.639ZM222.42 157.54C224.087 157.54 225.418 156.702 226.412 155.026C227.406 153.349 227.899 150.835 227.889 147.483C227.889 145.277 227.662 143.439 227.207 141.972C226.762 140.504 226.128 139.401 225.304 138.662C224.49 137.923 223.528 137.554 222.42 137.554C220.763 137.554 219.438 138.383 218.443 140.04C217.449 141.697 216.947 144.178 216.938 147.483C216.938 149.718 217.16 151.583 217.605 153.08C218.06 154.566 218.699 155.684 219.523 156.432C220.347 157.17 221.312 157.54 222.42 157.54ZM249.96 162.639C247.516 162.63 245.414 162.028 243.653 160.835C241.901 159.642 240.551 157.914 239.604 155.651C238.667 153.387 238.203 150.665 238.212 147.483C238.212 144.311 238.681 141.607 239.619 139.372C240.566 137.137 241.915 135.437 243.667 134.273C245.428 133.098 247.526 132.511 249.96 132.511C252.393 132.511 254.486 133.098 256.238 134.273C257.999 135.447 259.353 137.152 260.3 139.386C261.247 141.612 261.716 144.311 261.707 147.483C261.707 150.674 261.233 153.402 260.286 155.665C259.349 157.928 258.004 159.656 256.252 160.849C254.5 162.043 252.403 162.639 249.96 162.639ZM249.96 157.54C251.626 157.54 252.957 156.702 253.951 155.026C254.945 153.349 255.438 150.835 255.428 147.483C255.428 145.277 255.201 143.439 254.746 141.972C254.301 140.504 253.667 139.401 252.843 138.662C252.029 137.923 251.067 137.554 249.96 137.554C248.302 137.554 246.977 138.383 245.982 140.04C244.988 141.697 244.486 144.178 244.477 147.483C244.477 149.718 244.699 151.583 245.144 153.08C245.599 154.566 246.238 155.684 247.062 156.432C247.886 157.17 248.852 157.54 249.96 157.54ZM277.499 162.639C275.055 162.63 272.953 162.028 271.192 160.835C269.44 159.642 268.09 157.914 267.143 155.651C266.206 153.387 265.742 150.665 265.751 147.483C265.751 144.311 266.22 141.607 267.158 139.372C268.105 137.137 269.454 135.437 271.206 134.273C272.967 133.098 275.065 132.511 277.499 132.511C279.932 132.511 282.025 133.098 283.777 134.273C285.538 135.447 286.893 137.152 287.839 139.386C288.786 141.612 289.255 144.311 289.246 147.483C289.246 150.674 288.772 153.402 287.825 155.665C286.888 157.928 285.543 159.656 283.791 160.849C282.039 162.043 279.942 162.639 277.499 162.639ZM277.499 157.54C279.165 157.54 280.496 156.702 281.49 155.026C282.484 153.349 282.977 150.835 282.967 147.483C282.967 145.277 282.74 143.439 282.286 141.972C281.84 140.504 281.206 139.401 280.382 138.662C279.568 137.923 278.607 137.554 277.499 137.554C275.841 137.554 274.516 138.383 273.521 140.04C272.527 141.697 272.025 144.178 272.016 147.483C272.016 149.718 272.238 151.583 272.683 153.08C273.138 154.566 273.777 155.684 274.601 156.432C275.425 157.17 276.391 157.54 277.499 157.54ZM310.287 137.636L302.787 165.5H300.333L307.833 137.636H310.287ZM319.236 138.727H322.463L328.918 149.591H329.191L335.645 138.727H338.873L330.463 152.409V162H327.645V152.409L319.236 138.727ZM347.003 162.364C345.321 162.364 343.871 161.992 342.651 161.25C341.439 160.5 340.503 159.455 339.844 158.114C339.193 156.765 338.867 155.197 338.867 153.409C338.867 151.621 339.193 150.045 339.844 148.682C340.503 147.311 341.42 146.242 342.594 145.477C343.776 144.705 345.155 144.318 346.73 144.318C347.64 144.318 348.537 144.47 349.424 144.773C350.31 145.076 351.117 145.568 351.844 146.25C352.571 146.924 353.151 147.818 353.583 148.932C354.015 150.045 354.23 151.417 354.23 153.045V154.182H340.776V151.864H351.503C351.503 150.879 351.306 150 350.912 149.227C350.526 148.455 349.973 147.845 349.253 147.398C348.541 146.951 347.7 146.727 346.73 146.727C345.662 146.727 344.738 146.992 343.958 147.523C343.185 148.045 342.59 148.727 342.174 149.568C341.757 150.409 341.549 151.311 341.549 152.273V153.818C341.549 155.136 341.776 156.254 342.23 157.17C342.693 158.08 343.333 158.773 344.151 159.25C344.969 159.72 345.92 159.955 347.003 159.955C347.708 159.955 348.344 159.856 348.912 159.659C349.488 159.455 349.984 159.152 350.401 158.75C350.818 158.341 351.14 157.833 351.367 157.227L353.958 157.955C353.685 158.833 353.227 159.606 352.583 160.273C351.939 160.932 351.143 161.447 350.196 161.818C349.249 162.182 348.185 162.364 347.003 162.364ZM363.446 162.409C362.34 162.409 361.337 162.201 360.435 161.784C359.533 161.36 358.818 160.75 358.287 159.955C357.757 159.152 357.492 158.182 357.492 157.045C357.492 156.045 357.689 155.235 358.083 154.614C358.477 153.985 359.003 153.492 359.662 153.136C360.321 152.78 361.049 152.515 361.844 152.341C362.647 152.159 363.454 152.015 364.265 151.909C365.325 151.773 366.185 151.67 366.844 151.602C367.511 151.527 367.996 151.402 368.299 151.227C368.609 151.053 368.765 150.75 368.765 150.318V150.227C368.765 149.106 368.458 148.235 367.844 147.614C367.238 146.992 366.318 146.682 365.083 146.682C363.802 146.682 362.799 146.962 362.071 147.523C361.344 148.083 360.833 148.682 360.537 149.318L357.992 148.409C358.446 147.348 359.052 146.523 359.81 145.932C360.575 145.333 361.408 144.917 362.31 144.682C363.219 144.439 364.113 144.318 364.992 144.318C365.552 144.318 366.196 144.386 366.924 144.523C367.658 144.652 368.367 144.92 369.049 145.33C369.738 145.739 370.31 146.356 370.765 147.182C371.219 148.008 371.446 149.114 371.446 150.5V162H368.765V159.636H368.628C368.446 160.015 368.143 160.42 367.719 160.852C367.295 161.284 366.73 161.652 366.026 161.955C365.321 162.258 364.462 162.409 363.446 162.409ZM363.855 160C364.916 160 365.81 159.792 366.537 159.375C367.272 158.958 367.825 158.42 368.196 157.761C368.575 157.102 368.765 156.409 368.765 155.682V153.227C368.651 153.364 368.401 153.489 368.015 153.602C367.636 153.708 367.196 153.803 366.696 153.886C366.204 153.962 365.723 154.03 365.253 154.091C364.791 154.144 364.416 154.189 364.128 154.227C363.431 154.318 362.78 154.466 362.174 154.67C361.575 154.867 361.09 155.167 360.719 155.568C360.355 155.962 360.174 156.5 360.174 157.182C360.174 158.114 360.518 158.818 361.208 159.295C361.905 159.765 362.787 160 363.855 160ZM376.341 162V144.545H378.932V147.182H379.114C379.432 146.318 380.008 145.617 380.841 145.08C381.675 144.542 382.614 144.273 383.659 144.273C383.856 144.273 384.103 144.277 384.398 144.284C384.694 144.292 384.917 144.303 385.069 144.318V147.045C384.978 147.023 384.769 146.989 384.444 146.943C384.125 146.89 383.788 146.864 383.432 146.864C382.584 146.864 381.826 147.042 381.159 147.398C380.5 147.746 379.978 148.231 379.591 148.852C379.212 149.466 379.023 150.167 379.023 150.955V162H376.341Z" fill="white"/>
<path d="M124.94 72.33C125.68 72.33 126.325 72.23 126.875 72.03C127.425 71.83 127.88 71.55 128.24 71.19C128.6 70.82 128.865 70.38 129.035 69.87C129.215 69.36 129.305 68.79 129.305 68.16C129.305 67.29 129.02 66.6 128.45 66.09C127.89 65.58 127.005 65.325 125.795 65.325H121.865L121.01 72.33H124.94ZM123.005 56.055L122.165 62.955H125.315C126.795 62.955 127.915 62.6 128.675 61.89C129.435 61.18 129.815 60.17 129.815 58.86C129.815 57.89 129.53 57.18 128.96 56.73C128.39 56.28 127.515 56.055 126.335 56.055H123.005ZM126.635 53.4C127.795 53.4 128.79 53.515 129.62 53.745C130.46 53.975 131.145 54.305 131.675 54.735C132.215 55.155 132.61 55.665 132.86 56.265C133.11 56.865 133.235 57.535 133.235 58.275C133.235 58.905 133.145 59.505 132.965 60.075C132.795 60.645 132.53 61.175 132.17 61.665C131.82 62.145 131.375 62.575 130.835 62.955C130.295 63.335 129.655 63.645 128.915 63.885C130.165 64.185 131.095 64.69 131.705 65.4C132.325 66.11 132.635 67.01 132.635 68.1C132.635 69.1 132.45 70.02 132.08 70.86C131.72 71.7 131.195 72.43 130.505 73.05C129.825 73.66 128.99 74.14 128 74.49C127.02 74.83 125.91 75 124.67 75H117.305L119.96 53.4H126.635ZM142.657 61.77C142.097 61.77 141.577 61.885 141.097 62.115C140.627 62.345 140.202 62.665 139.822 63.075C139.452 63.475 139.127 63.955 138.847 64.515C138.577 65.075 138.367 65.685 138.217 66.345C139.597 66.165 140.707 65.965 141.547 65.745C142.387 65.525 143.032 65.285 143.482 65.025C143.932 64.765 144.232 64.49 144.382 64.2C144.532 63.9 144.607 63.585 144.607 63.255C144.607 63.095 144.572 62.925 144.502 62.745C144.432 62.565 144.317 62.405 144.157 62.265C144.007 62.125 143.807 62.01 143.557 61.92C143.307 61.82 143.007 61.77 142.657 61.77ZM147.142 72.165C146.622 72.695 146.112 73.155 145.612 73.545C145.112 73.925 144.602 74.24 144.082 74.49C143.562 74.74 143.017 74.925 142.447 75.045C141.877 75.165 141.257 75.225 140.587 75.225C139.697 75.225 138.897 75.075 138.187 74.775C137.477 74.475 136.867 74.055 136.357 73.515C135.857 72.965 135.472 72.305 135.202 71.535C134.932 70.755 134.797 69.885 134.797 68.925C134.797 68.125 134.882 67.34 135.052 66.57C135.222 65.79 135.467 65.05 135.787 64.35C136.117 63.65 136.512 63.005 136.972 62.415C137.442 61.815 137.972 61.3 138.562 60.87C139.162 60.44 139.817 60.105 140.527 59.865C141.247 59.615 142.017 59.49 142.837 59.49C143.627 59.49 144.312 59.605 144.892 59.835C145.472 60.055 145.952 60.345 146.332 60.705C146.722 61.055 147.012 61.445 147.202 61.875C147.392 62.305 147.487 62.725 147.487 63.135C147.487 63.805 147.347 64.42 147.067 64.98C146.797 65.54 146.307 66.045 145.597 66.495C144.887 66.945 143.912 67.335 142.672 67.665C141.442 67.995 139.862 68.26 137.932 68.46C137.922 68.52 137.917 68.585 137.917 68.655C137.917 68.715 137.917 68.78 137.917 68.85C137.917 70.12 138.192 71.08 138.742 71.73C139.292 72.37 140.117 72.69 141.217 72.69C141.907 72.69 142.482 72.595 142.942 72.405C143.402 72.215 143.792 72.01 144.112 71.79C144.442 71.56 144.727 71.35 144.967 71.16C145.217 70.97 145.477 70.875 145.747 70.875C145.957 70.875 146.152 70.975 146.332 71.175L147.142 72.165ZM159.319 62.385C159.229 62.525 159.134 62.625 159.034 62.685C158.944 62.745 158.829 62.775 158.689 62.775C158.529 62.775 158.364 62.725 158.194 62.625C158.024 62.515 157.819 62.395 157.579 62.265C157.349 62.135 157.074 62.02 156.754 61.92C156.434 61.81 156.049 61.755 155.599 61.755C155.179 61.755 154.799 61.81 154.459 61.92C154.129 62.03 153.844 62.18 153.604 62.37C153.364 62.56 153.179 62.785 153.049 63.045C152.929 63.305 152.869 63.58 152.869 63.87C152.869 64.2 152.954 64.48 153.124 64.71C153.304 64.93 153.539 65.125 153.829 65.295C154.119 65.465 154.449 65.62 154.819 65.76C155.189 65.9 155.564 66.045 155.944 66.195C156.334 66.345 156.714 66.52 157.084 66.72C157.454 66.91 157.784 67.145 158.074 67.425C158.364 67.695 158.594 68.025 158.764 68.415C158.944 68.805 159.034 69.27 159.034 69.81C159.034 70.53 158.889 71.22 158.599 71.88C158.319 72.54 157.909 73.12 157.369 73.62C156.839 74.11 156.194 74.505 155.434 74.805C154.684 75.095 153.844 75.24 152.914 75.24C151.944 75.24 151.064 75.065 150.274 74.715C149.494 74.355 148.869 73.905 148.399 73.365L149.194 72.135C149.294 71.985 149.409 71.87 149.539 71.79C149.669 71.7 149.829 71.655 150.019 71.655C150.199 71.655 150.374 71.725 150.544 71.865C150.714 71.995 150.914 72.145 151.144 72.315C151.384 72.475 151.674 72.625 152.014 72.765C152.354 72.895 152.794 72.96 153.334 72.96C153.784 72.96 154.184 72.9 154.534 72.78C154.884 72.65 155.179 72.475 155.419 72.255C155.659 72.035 155.844 71.78 155.974 71.49C156.104 71.2 156.169 70.895 156.169 70.575C156.169 70.215 156.079 69.915 155.899 69.675C155.729 69.435 155.499 69.23 155.209 69.06C154.919 68.88 154.589 68.725 154.219 68.595C153.859 68.465 153.484 68.33 153.094 68.19C152.714 68.05 152.339 67.89 151.969 67.71C151.609 67.53 151.284 67.305 150.994 67.035C150.704 66.765 150.469 66.44 150.289 66.06C150.119 65.67 150.034 65.195 150.034 64.635C150.034 63.975 150.164 63.335 150.424 62.715C150.684 62.085 151.059 61.53 151.549 61.05C152.039 60.57 152.639 60.185 153.349 59.895C154.059 59.605 154.869 59.46 155.779 59.46C156.729 59.46 157.564 59.62 158.284 59.94C159.014 60.26 159.634 60.685 160.144 61.215L159.319 62.385ZM162.628 71.985C162.628 71.915 162.628 71.835 162.628 71.745C162.638 71.645 162.648 71.505 162.658 71.325C162.678 71.145 162.703 70.905 162.733 70.605C162.763 70.305 162.808 69.92 162.868 69.45L163.753 62.235H162.208C162.038 62.235 161.903 62.18 161.803 62.07C161.703 61.95 161.668 61.775 161.698 61.545L161.848 60.24L164.173 59.88L165.373 55.455C165.433 55.285 165.523 55.15 165.643 55.05C165.773 54.94 165.928 54.885 166.108 54.885H167.818L167.188 59.91H171.043L170.773 62.235H166.903L166.048 69.27C165.998 69.68 165.958 70.01 165.928 70.26C165.898 70.5 165.873 70.695 165.853 70.845C165.843 70.985 165.833 71.085 165.823 71.145C165.823 71.195 165.823 71.235 165.823 71.265C165.823 71.705 165.928 72.04 166.138 72.27C166.348 72.5 166.638 72.615 167.008 72.615C167.248 72.615 167.453 72.585 167.623 72.525C167.793 72.455 167.943 72.385 168.073 72.315C168.203 72.235 168.313 72.165 168.403 72.105C168.493 72.035 168.578 72 168.658 72C168.768 72 168.848 72.025 168.898 72.075C168.948 72.115 168.998 72.19 169.048 72.3L169.738 73.875C169.208 74.315 168.618 74.655 167.968 74.895C167.328 75.125 166.678 75.24 166.018 75.24C164.988 75.24 164.173 74.96 163.573 74.4C162.973 73.83 162.658 73.025 162.628 71.985ZM203.472 53.4L200.817 75H197.862L199.692 60.09C199.722 59.86 199.762 59.6 199.812 59.31C199.872 59.02 199.937 58.73 200.007 58.44L192.102 71.355C191.802 71.855 191.372 72.105 190.812 72.105H190.347C190.087 72.105 189.857 72.045 189.657 71.925C189.457 71.795 189.312 71.605 189.222 71.355L184.422 58.44C184.412 58.73 184.397 59.01 184.377 59.28C184.367 59.55 184.352 59.8 184.332 60.03L182.502 75H179.532L182.187 53.4H184.707C184.857 53.4 184.982 53.41 185.082 53.43C185.182 53.44 185.272 53.465 185.352 53.505C185.432 53.545 185.507 53.6 185.577 53.67C185.647 53.74 185.722 53.835 185.802 53.955L190.632 66.855C190.782 67.325 190.912 67.805 191.022 68.295C191.132 68.045 191.247 67.8 191.367 67.56C191.487 67.32 191.617 67.085 191.757 66.855L199.722 53.955C199.932 53.725 200.112 53.575 200.262 53.505C200.422 53.435 200.647 53.4 200.937 53.4H203.472ZM210.775 72.705C211.445 72.705 212.055 72.52 212.605 72.15C213.155 71.77 213.62 71.265 214 70.635C214.39 70.005 214.69 69.28 214.9 68.46C215.11 67.63 215.215 66.765 215.215 65.865C215.215 64.545 214.97 63.57 214.48 62.94C214 62.3 213.285 61.98 212.335 61.98C211.655 61.98 211.04 62.165 210.49 62.535C209.95 62.905 209.49 63.4 209.11 64.02C208.73 64.64 208.435 65.365 208.225 66.195C208.015 67.025 207.91 67.895 207.91 68.805C207.91 71.405 208.865 72.705 210.775 72.705ZM210.49 75.225C209.65 75.225 208.875 75.085 208.165 74.805C207.455 74.515 206.84 74.1 206.32 73.56C205.81 73.01 205.41 72.34 205.12 71.55C204.83 70.75 204.685 69.845 204.685 68.835C204.685 67.525 204.89 66.3 205.3 65.16C205.72 64.02 206.29 63.03 207.01 62.19C207.73 61.34 208.57 60.675 209.53 60.195C210.5 59.705 211.535 59.46 212.635 59.46C213.475 59.46 214.25 59.605 214.96 59.895C215.67 60.175 216.28 60.59 216.79 61.14C217.3 61.68 217.7 62.35 217.99 63.15C218.28 63.94 218.425 64.84 218.425 65.85C218.425 66.71 218.33 67.54 218.14 68.34C217.95 69.14 217.685 69.89 217.345 70.59C217.005 71.28 216.59 71.91 216.1 72.48C215.62 73.05 215.085 73.54 214.495 73.95C213.915 74.35 213.285 74.665 212.605 74.895C211.925 75.115 211.22 75.225 210.49 75.225ZM225.415 59.7L223.45 75.795C223.37 76.435 223.21 77.035 222.97 77.595C222.73 78.165 222.405 78.66 221.995 79.08C221.595 79.5 221.11 79.83 220.54 80.07C219.97 80.31 219.32 80.43 218.59 80.43C218.21 80.43 217.89 80.405 217.63 80.355C217.36 80.305 217.095 80.235 216.835 80.145L217.15 78.39C217.21 78.19 217.31 78.075 217.45 78.045C217.58 78.015 217.815 78 218.155 78C218.495 78 218.79 77.96 219.04 77.88C219.28 77.8 219.485 77.67 219.655 77.49C219.825 77.32 219.96 77.095 220.06 76.815C220.17 76.535 220.25 76.195 220.3 75.795L222.265 59.7H225.415ZM226.3 55.08C226.3 55.37 226.24 55.645 226.12 55.905C226 56.165 225.84 56.395 225.64 56.595C225.44 56.785 225.21 56.94 224.95 57.06C224.7 57.17 224.44 57.225 224.17 57.225C223.91 57.225 223.655 57.17 223.405 57.06C223.165 56.94 222.95 56.785 222.76 56.595C222.57 56.395 222.415 56.165 222.295 55.905C222.185 55.645 222.13 55.37 222.13 55.08C222.13 54.79 222.185 54.515 222.295 54.255C222.415 53.985 222.57 53.755 222.76 53.565C222.96 53.365 223.18 53.21 223.42 53.1C223.67 52.98 223.93 52.92 224.2 52.92C224.47 52.92 224.73 52.98 224.98 53.1C225.23 53.21 225.45 53.365 225.64 53.565C225.84 53.755 226 53.98 226.12 54.24C226.24 54.5 226.3 54.78 226.3 55.08ZM233.509 72.705C234.179 72.705 234.789 72.52 235.339 72.15C235.889 71.77 236.354 71.265 236.734 70.635C237.124 70.005 237.424 69.28 237.634 68.46C237.844 67.63 237.949 66.765 237.949 65.865C237.949 64.545 237.704 63.57 237.214 62.94C236.734 62.3 236.019 61.98 235.069 61.98C234.389 61.98 233.774 62.165 233.224 62.535C232.684 62.905 232.224 63.4 231.844 64.02C231.464 64.64 231.169 65.365 230.959 66.195C230.749 67.025 230.644 67.895 230.644 68.805C230.644 71.405 231.599 72.705 233.509 72.705ZM233.224 75.225C232.384 75.225 231.609 75.085 230.899 74.805C230.189 74.515 229.574 74.1 229.054 73.56C228.544 73.01 228.144 72.34 227.854 71.55C227.564 70.75 227.419 69.845 227.419 68.835C227.419 67.525 227.624 66.3 228.034 65.16C228.454 64.02 229.024 63.03 229.744 62.19C230.464 61.34 231.304 60.675 232.264 60.195C233.234 59.705 234.269 59.46 235.369 59.46C236.209 59.46 236.984 59.605 237.694 59.895C238.404 60.175 239.014 60.59 239.524 61.14C240.034 61.68 240.434 62.35 240.724 63.15C241.014 63.94 241.159 64.84 241.159 65.85C241.159 66.71 241.064 67.54 240.874 68.34C240.684 69.14 240.419 69.89 240.079 70.59C239.739 71.28 239.324 71.91 238.834 72.48C238.354 73.05 237.819 73.54 237.229 73.95C236.649 74.35 236.019 74.665 235.339 74.895C234.659 75.115 233.954 75.225 233.224 75.225ZM250.686 66.75L254.676 75H251.781C251.551 75 251.371 74.94 251.241 74.82C251.111 74.7 251.011 74.555 250.941 74.385L248.346 68.655C248.296 68.775 248.241 68.89 248.181 69C248.131 69.1 248.071 69.2 248.001 69.3L244.236 74.4C244.126 74.56 244.001 74.7 243.861 74.82C243.721 74.94 243.546 75 243.336 75H240.516L246.636 66.735L243.036 59.7H245.931C246.161 59.7 246.326 59.73 246.426 59.79C246.526 59.85 246.611 59.96 246.681 60.12L248.991 65.01C249.051 64.9 249.116 64.785 249.186 64.665C249.256 64.545 249.331 64.425 249.411 64.305L252.456 60.18C252.646 59.86 252.891 59.7 253.191 59.7H256.086L250.686 66.75ZM263.858 61.77C263.298 61.77 262.778 61.885 262.298 62.115C261.828 62.345 261.403 62.665 261.023 63.075C260.653 63.475 260.328 63.955 260.048 64.515C259.778 65.075 259.568 65.685 259.418 66.345C260.798 66.165 261.908 65.965 262.748 65.745C263.588 65.525 264.233 65.285 264.683 65.025C265.133 64.765 265.433 64.49 265.583 64.2C265.733 63.9 265.808 63.585 265.808 63.255C265.808 63.095 265.773 62.925 265.703 62.745C265.633 62.565 265.518 62.405 265.358 62.265C265.208 62.125 265.008 62.01 264.758 61.92C264.508 61.82 264.208 61.77 263.858 61.77ZM268.343 72.165C267.823 72.695 267.313 73.155 266.813 73.545C266.313 73.925 265.803 74.24 265.283 74.49C264.763 74.74 264.218 74.925 263.648 75.045C263.078 75.165 262.458 75.225 261.788 75.225C260.898 75.225 260.098 75.075 259.388 74.775C258.678 74.475 258.068 74.055 257.558 73.515C257.058 72.965 256.673 72.305 256.403 71.535C256.133 70.755 255.998 69.885 255.998 68.925C255.998 68.125 256.083 67.34 256.253 66.57C256.423 65.79 256.668 65.05 256.988 64.35C257.318 63.65 257.713 63.005 258.173 62.415C258.643 61.815 259.173 61.3 259.763 60.87C260.363 60.44 261.018 60.105 261.728 59.865C262.448 59.615 263.218 59.49 264.038 59.49C264.828 59.49 265.513 59.605 266.093 59.835C266.673 60.055 267.153 60.345 267.533 60.705C267.923 61.055 268.213 61.445 268.403 61.875C268.593 62.305 268.688 62.725 268.688 63.135C268.688 63.805 268.548 64.42 268.268 64.98C267.998 65.54 267.508 66.045 266.798 66.495C266.088 66.945 265.113 67.335 263.873 67.665C262.643 67.995 261.063 68.26 259.133 68.46C259.123 68.52 259.118 68.585 259.118 68.655C259.118 68.715 259.118 68.78 259.118 68.85C259.118 70.12 259.393 71.08 259.943 71.73C260.493 72.37 261.318 72.69 262.418 72.69C263.108 72.69 263.683 72.595 264.143 72.405C264.603 72.215 264.993 72.01 265.313 71.79C265.643 71.56 265.928 71.35 266.168 71.16C266.418 70.97 266.678 70.875 266.948 70.875C267.158 70.875 267.353 70.975 267.533 71.175L268.343 72.165ZM274.865 63.645C275.255 62.835 275.675 62.14 276.125 61.56C276.585 60.98 277.06 60.525 277.55 60.195C278.05 59.865 278.56 59.67 279.08 59.61C279.61 59.55 280.14 59.635 280.67 59.865L280.085 62.955C278.815 62.445 277.7 62.61 276.74 63.45C275.79 64.28 275.025 65.855 274.445 68.175L273.635 75H270.485L272.33 59.67H273.95C274.3 59.67 274.565 59.76 274.745 59.94C274.935 60.11 275.03 60.38 275.03 60.75L274.865 63.645ZM290.891 62.385C290.801 62.525 290.706 62.625 290.606 62.685C290.516 62.745 290.401 62.775 290.261 62.775C290.101 62.775 289.936 62.725 289.766 62.625C289.596 62.515 289.391 62.395 289.151 62.265C288.921 62.135 288.646 62.02 288.326 61.92C288.006 61.81 287.621 61.755 287.171 61.755C286.751 61.755 286.371 61.81 286.031 61.92C285.701 62.03 285.416 62.18 285.176 62.37C284.936 62.56 284.751 62.785 284.621 63.045C284.501 63.305 284.441 63.58 284.441 63.87C284.441 64.2 284.526 64.48 284.696 64.71C284.876 64.93 285.111 65.125 285.401 65.295C285.691 65.465 286.021 65.62 286.391 65.76C286.761 65.9 287.136 66.045 287.516 66.195C287.906 66.345 288.286 66.52 288.656 66.72C289.026 66.91 289.356 67.145 289.646 67.425C289.936 67.695 290.166 68.025 290.336 68.415C290.516 68.805 290.606 69.27 290.606 69.81C290.606 70.53 290.461 71.22 290.171 71.88C289.891 72.54 289.481 73.12 288.941 73.62C288.411 74.11 287.766 74.505 287.006 74.805C286.256 75.095 285.416 75.24 284.486 75.24C283.516 75.24 282.636 75.065 281.846 74.715C281.066 74.355 280.441 73.905 279.971 73.365L280.766 72.135C280.866 71.985 280.981 71.87 281.111 71.79C281.241 71.7 281.401 71.655 281.591 71.655C281.771 71.655 281.946 71.725 282.116 71.865C282.286 71.995 282.486 72.145 282.716 72.315C282.956 72.475 283.246 72.625 283.586 72.765C283.926 72.895 284.366 72.96 284.906 72.96C285.356 72.96 285.756 72.9 286.106 72.78C286.456 72.65 286.751 72.475 286.991 72.255C287.231 72.035 287.416 71.78 287.546 71.49C287.676 71.2 287.741 70.895 287.741 70.575C287.741 70.215 287.651 69.915 287.471 69.675C287.301 69.435 287.071 69.23 286.781 69.06C286.491 68.88 286.161 68.725 285.791 68.595C285.431 68.465 285.056 68.33 284.666 68.19C284.286 68.05 283.911 67.89 283.541 67.71C283.181 67.53 282.856 67.305 282.566 67.035C282.276 66.765 282.041 66.44 281.861 66.06C281.691 65.67 281.606 65.195 281.606 64.635C281.606 63.975 281.736 63.335 281.996 62.715C282.256 62.085 282.631 61.53 283.121 61.05C283.611 60.57 284.211 60.185 284.921 59.895C285.631 59.605 286.441 59.46 287.351 59.46C288.301 59.46 289.136 59.62 289.856 59.94C290.586 60.26 291.206 60.685 291.716 61.215L290.891 62.385ZM297.836 52.275C298.166 53.005 298.341 53.74 298.361 54.48C298.391 55.21 298.281 55.925 298.031 56.625C297.791 57.325 297.421 58 296.921 58.65C296.431 59.3 295.836 59.905 295.136 60.465L294.266 59.895C294.136 59.795 294.071 59.665 294.071 59.505C294.071 59.415 294.096 59.33 294.146 59.25C294.196 59.17 294.281 59.06 294.401 58.92C294.591 58.7 294.796 58.42 295.016 58.08C295.236 57.73 295.411 57.34 295.541 56.91C295.681 56.47 295.746 56 295.736 55.5C295.736 54.99 295.611 54.455 295.361 53.895C295.281 53.715 295.286 53.545 295.376 53.385C295.476 53.225 295.636 53.105 295.856 53.025L297.836 52.275ZM313.918 64.47C314.718 64.47 315.418 64.35 316.018 64.11C316.628 63.86 317.133 63.52 317.533 63.09C317.933 62.65 318.233 62.13 318.433 61.53C318.633 60.92 318.733 60.255 318.733 59.535C318.733 58.475 318.423 57.63 317.803 57C317.183 56.37 316.228 56.055 314.938 56.055H312.043L311.008 64.47H313.918ZM315.268 53.4C316.448 53.4 317.468 53.545 318.328 53.835C319.198 54.115 319.913 54.515 320.473 55.035C321.043 55.545 321.463 56.16 321.733 56.88C322.003 57.59 322.138 58.375 322.138 59.235C322.138 60.385 321.953 61.445 321.583 62.415C321.223 63.375 320.683 64.205 319.963 64.905C319.243 65.605 318.348 66.155 317.278 66.555C316.218 66.945 314.988 67.14 313.588 67.14H310.678L309.718 75H306.358L308.998 53.4H315.268ZM327.101 63.645C327.491 62.835 327.911 62.14 328.361 61.56C328.821 60.98 329.296 60.525 329.786 60.195C330.286 59.865 330.796 59.67 331.316 59.61C331.846 59.55 332.376 59.635 332.906 59.865L332.321 62.955C331.051 62.445 329.936 62.61 328.976 63.45C328.026 64.28 327.261 65.855 326.681 68.175L325.871 75H322.721L324.566 59.67H326.186C326.536 59.67 326.801 59.76 326.981 59.94C327.171 60.11 327.266 60.38 327.266 60.75L327.101 63.645ZM338.311 59.7L336.466 75H333.301L335.131 59.7H338.311ZM339.271 55.08C339.271 55.37 339.211 55.645 339.091 55.905C338.971 56.165 338.811 56.395 338.611 56.595C338.411 56.785 338.186 56.94 337.936 57.06C337.686 57.17 337.426 57.225 337.156 57.225C336.886 57.225 336.626 57.17 336.376 57.06C336.136 56.94 335.921 56.785 335.731 56.595C335.551 56.395 335.401 56.165 335.281 55.905C335.171 55.645 335.116 55.37 335.116 55.08C335.116 54.79 335.171 54.515 335.281 54.255C335.401 53.985 335.556 53.755 335.746 53.565C335.936 53.365 336.156 53.21 336.406 53.1C336.656 52.98 336.911 52.92 337.171 52.92C337.441 52.92 337.701 52.98 337.951 53.1C338.211 53.21 338.436 53.365 338.626 53.565C338.826 53.755 338.981 53.98 339.091 54.24C339.211 54.5 339.271 54.78 339.271 55.08ZM351.939 72.27C351.429 72.84 350.939 73.315 350.469 73.695C349.999 74.065 349.524 74.365 349.044 74.595C348.574 74.825 348.079 74.985 347.559 75.075C347.049 75.175 346.489 75.225 345.879 75.225C344.989 75.225 344.199 75.075 343.509 74.775C342.819 74.465 342.239 74.035 341.769 73.485C341.299 72.925 340.939 72.255 340.689 71.475C340.439 70.695 340.314 69.83 340.314 68.88C340.314 68.06 340.404 67.255 340.584 66.465C340.764 65.675 341.019 64.935 341.349 64.245C341.679 63.545 342.079 62.905 342.549 62.325C343.029 61.735 343.564 61.23 344.154 60.81C344.744 60.39 345.384 60.065 346.074 59.835C346.764 59.595 347.494 59.475 348.264 59.475C349.284 59.475 350.139 59.655 350.829 60.015C351.529 60.375 352.144 60.905 352.674 61.605L351.654 62.835C351.574 62.915 351.484 62.99 351.384 63.06C351.284 63.12 351.174 63.15 351.054 63.15C350.904 63.15 350.759 63.095 350.619 62.985C350.479 62.875 350.309 62.755 350.109 62.625C349.909 62.485 349.659 62.36 349.359 62.25C349.059 62.13 348.674 62.07 348.204 62.07C347.574 62.07 346.974 62.24 346.404 62.58C345.844 62.92 345.349 63.395 344.919 64.005C344.499 64.605 344.164 65.325 343.914 66.165C343.664 67.005 343.539 67.92 343.539 68.91C343.539 70.09 343.799 71.015 344.319 71.685C344.849 72.355 345.594 72.69 346.554 72.69C347.174 72.69 347.689 72.6 348.099 72.42C348.509 72.24 348.854 72.045 349.134 71.835C349.424 71.625 349.674 71.43 349.884 71.25C350.094 71.07 350.314 70.98 350.544 70.98C350.754 70.98 350.949 71.08 351.129 71.28L351.939 72.27ZM361.505 61.77C360.945 61.77 360.425 61.885 359.945 62.115C359.475 62.345 359.05 62.665 358.67 63.075C358.3 63.475 357.975 63.955 357.695 64.515C357.425 65.075 357.215 65.685 357.065 66.345C358.445 66.165 359.555 65.965 360.395 65.745C361.235 65.525 361.88 65.285 362.33 65.025C362.78 64.765 363.08 64.49 363.23 64.2C363.38 63.9 363.455 63.585 363.455 63.255C363.455 63.095 363.42 62.925 363.35 62.745C363.28 62.565 363.165 62.405 363.005 62.265C362.855 62.125 362.655 62.01 362.405 61.92C362.155 61.82 361.855 61.77 361.505 61.77ZM365.99 72.165C365.47 72.695 364.96 73.155 364.46 73.545C363.96 73.925 363.45 74.24 362.93 74.49C362.41 74.74 361.865 74.925 361.295 75.045C360.725 75.165 360.105 75.225 359.435 75.225C358.545 75.225 357.745 75.075 357.035 74.775C356.325 74.475 355.715 74.055 355.205 73.515C354.705 72.965 354.32 72.305 354.05 71.535C353.78 70.755 353.645 69.885 353.645 68.925C353.645 68.125 353.73 67.34 353.9 66.57C354.07 65.79 354.315 65.05 354.635 64.35C354.965 63.65 355.36 63.005 355.82 62.415C356.29 61.815 356.82 61.3 357.41 60.87C358.01 60.44 358.665 60.105 359.375 59.865C360.095 59.615 360.865 59.49 361.685 59.49C362.475 59.49 363.16 59.605 363.74 59.835C364.32 60.055 364.8 60.345 365.18 60.705C365.57 61.055 365.86 61.445 366.05 61.875C366.24 62.305 366.335 62.725 366.335 63.135C366.335 63.805 366.195 64.42 365.915 64.98C365.645 65.54 365.155 66.045 364.445 66.495C363.735 66.945 362.76 67.335 361.52 67.665C360.29 67.995 358.71 68.26 356.78 68.46C356.77 68.52 356.765 68.585 356.765 68.655C356.765 68.715 356.765 68.78 356.765 68.85C356.765 70.12 357.04 71.08 357.59 71.73C358.14 72.37 358.965 72.69 360.065 72.69C360.755 72.69 361.33 72.595 361.79 72.405C362.25 72.215 362.64 72.01 362.96 71.79C363.29 71.56 363.575 71.35 363.815 71.16C364.065 70.97 364.325 70.875 364.595 70.875C364.805 70.875 365 70.975 365.18 71.175L365.99 72.165Z" fill="white"/>
<path d="M0 10C0 4.47715 4.47715 0 10 0H448C453.523 0 458 4.47715 458 10V35H0V10Z" fill="#00B9AE"/>
<path d="M153.641 108.199C152.58 108.199 151.638 108.007 150.814 107.624C149.99 107.24 149.339 106.712 148.861 106.04C148.387 105.367 148.141 104.596 148.122 103.724H151.531C151.56 104.259 151.777 104.69 152.185 105.017C152.592 105.339 153.077 105.5 153.641 105.5C154.081 105.5 154.472 105.403 154.812 105.209C155.153 105.015 155.421 104.742 155.615 104.392C155.809 104.037 155.904 103.63 155.899 103.17C155.904 102.702 155.807 102.292 155.608 101.942C155.414 101.591 155.144 101.319 154.798 101.125C154.457 100.926 154.064 100.827 153.619 100.827C153.198 100.822 152.798 100.914 152.419 101.104C152.045 101.293 151.761 101.551 151.567 101.878L148.463 101.295L149.095 93.4545H158.428V96.2884H151.986L151.652 99.7188H151.737C151.979 99.3163 152.367 98.9848 152.902 98.7244C153.442 98.4593 154.055 98.3267 154.741 98.3267C155.613 98.3267 156.389 98.5303 157.071 98.9375C157.758 99.34 158.297 99.8987 158.69 100.614C159.088 101.329 159.287 102.148 159.287 103.071C159.287 104.07 159.05 104.955 158.577 105.727C158.108 106.499 157.45 107.105 156.602 107.545C155.759 107.981 154.772 108.199 153.641 108.199ZM167.233 108.355C165.964 108.355 164.87 108.054 163.951 107.453C163.033 106.847 162.325 105.978 161.828 104.847C161.331 103.71 161.084 102.344 161.089 100.749C161.094 99.1529 161.342 97.7988 161.835 96.6861C162.332 95.5687 163.038 94.7187 163.951 94.1364C164.87 93.5492 165.964 93.2557 167.233 93.2557C168.502 93.2557 169.595 93.5492 170.514 94.1364C171.437 94.7187 172.147 95.5687 172.645 96.6861C173.142 97.8035 173.388 99.1577 173.383 100.749C173.383 102.349 173.135 103.717 172.637 104.854C172.14 105.99 171.432 106.859 170.514 107.46C169.6 108.057 168.506 108.355 167.233 108.355ZM167.233 105.479C167.99 105.479 168.603 105.093 169.072 104.321C169.541 103.545 169.773 102.354 169.768 100.749C169.768 99.6974 169.662 98.831 169.449 98.1491C169.235 97.4626 168.94 96.9512 168.561 96.6151C168.182 96.2789 167.739 96.1108 167.233 96.1108C166.48 96.1108 165.871 96.492 165.407 97.2543C164.943 98.0118 164.709 99.1766 164.704 100.749C164.699 101.814 164.801 102.697 165.01 103.398C165.223 104.098 165.521 104.622 165.904 104.967C166.288 105.308 166.731 105.479 167.233 105.479ZM183.543 105.273V104.506C183.543 103.909 183.671 103.357 183.926 102.851C184.187 102.344 184.563 101.937 185.056 101.629C185.548 101.321 186.15 101.168 186.86 101.168C187.584 101.168 188.193 101.321 188.685 101.629C189.182 101.932 189.556 102.337 189.807 102.844C190.063 103.346 190.191 103.9 190.191 104.506V105.273C190.191 105.869 190.063 106.421 189.807 106.928C189.551 107.434 189.175 107.841 188.678 108.149C188.181 108.457 187.575 108.611 186.86 108.611C186.14 108.611 185.534 108.457 185.042 108.149C184.549 107.841 184.175 107.434 183.919 106.928C183.668 106.421 183.543 105.869 183.543 105.273ZM185.809 104.506V105.273C185.809 105.576 185.882 105.867 186.029 106.146C186.18 106.426 186.457 106.565 186.86 106.565C187.272 106.565 187.549 106.43 187.691 106.161C187.833 105.886 187.904 105.59 187.904 105.273V104.506C187.904 104.188 187.835 103.89 187.698 103.611C187.565 103.327 187.286 103.185 186.86 103.185C186.462 103.185 186.187 103.327 186.036 103.611C185.884 103.89 185.809 104.188 185.809 104.506ZM176 96.9489V96.1818C176 95.5758 176.131 95.0218 176.391 94.5199C176.656 94.0133 177.035 93.6084 177.527 93.3054C178.02 92.9976 178.616 92.8438 179.317 92.8438C180.042 92.8438 180.65 92.9976 181.142 93.3054C181.64 93.6084 182.016 94.0133 182.272 94.5199C182.527 95.0218 182.655 95.5758 182.655 96.1818V96.9489C182.655 97.5549 182.525 98.1089 182.265 98.6108C182.009 99.1127 181.632 99.5128 181.135 99.8111C180.638 100.109 180.032 100.259 179.317 100.259C178.602 100.259 177.996 100.107 177.499 99.804C177.007 99.5009 176.632 99.0985 176.377 98.5966C176.126 98.0947 176 97.5455 176 96.9489ZM178.287 96.1818V96.9489C178.287 97.2661 178.361 97.562 178.507 97.8366C178.659 98.1065 178.929 98.2415 179.317 98.2415C179.734 98.2415 180.011 98.1065 180.148 97.8366C180.29 97.562 180.361 97.2661 180.361 96.9489V96.1818C180.361 95.8646 180.295 95.5663 180.162 95.2869C180.03 95.0028 179.748 94.8608 179.317 94.8608C178.919 94.8608 178.647 95.0052 178.5 95.294C178.358 95.5829 178.287 95.8788 178.287 96.1818ZM177.073 108L187.073 93.4545H189.012L179.012 108H177.073ZM202.314 108.206C201.168 108.206 200.184 107.972 199.36 107.503C198.541 107.029 197.908 106.371 197.463 105.528C197.023 104.681 196.803 103.698 196.803 102.581C196.803 101.459 197.023 100.476 197.463 99.6335C197.908 98.786 198.541 98.1278 199.36 97.6591C200.184 97.1856 201.168 96.9489 202.314 96.9489C203.46 96.9489 204.443 97.1856 205.262 97.6591C206.086 98.1278 206.718 98.786 207.158 99.6335C207.603 100.476 207.826 101.459 207.826 102.581C207.826 103.698 207.603 104.681 207.158 105.528C206.718 106.371 206.086 107.029 205.262 107.503C204.443 107.972 203.46 108.206 202.314 108.206ZM202.336 105.585C202.752 105.585 203.105 105.457 203.394 105.202C203.683 104.946 203.903 104.591 204.054 104.136C204.211 103.682 204.289 103.156 204.289 102.56C204.289 101.954 204.211 101.423 204.054 100.969C203.903 100.514 203.683 100.159 203.394 99.9034C203.105 99.6477 202.752 99.5199 202.336 99.5199C201.905 99.5199 201.54 99.6477 201.242 99.9034C200.948 100.159 200.723 100.514 200.567 100.969C200.416 101.423 200.34 101.954 200.34 102.56C200.34 103.156 200.416 103.682 200.567 104.136C200.723 104.591 200.948 104.946 201.242 105.202C201.54 105.457 201.905 105.585 202.336 105.585ZM215.805 97.0909V99.6477H208.788V97.0909H215.805ZM210.251 108V96.5369C210.251 95.6941 210.41 94.9957 210.727 94.4418C211.044 93.883 211.484 93.4664 212.048 93.1918C212.611 92.9124 213.262 92.7727 214.001 92.7727C214.484 92.7727 214.939 92.8106 215.365 92.8864C215.796 92.9574 216.115 93.0213 216.324 93.0781L215.77 95.6207C215.642 95.5781 215.485 95.5426 215.301 95.5142C215.121 95.4858 214.95 95.4716 214.789 95.4716C214.382 95.4716 214.103 95.5616 213.951 95.7415C213.8 95.9214 213.724 96.1676 213.724 96.4801V108H210.251ZM223.676 97.0909V99.6477H216.659V97.0909H223.676ZM218.122 108V96.5369C218.122 95.6941 218.281 94.9957 218.598 94.4418C218.915 93.883 219.356 93.4664 219.919 93.1918C220.482 92.9124 221.134 92.7727 221.872 92.7727C222.355 92.7727 222.81 92.8106 223.236 92.8864C223.667 92.9574 223.986 93.0213 224.195 93.0781L223.641 95.6207C223.513 95.5781 223.357 95.5426 223.172 95.5142C222.992 95.4858 222.821 95.4716 222.661 95.4716C222.253 95.4716 221.974 95.5616 221.822 95.7415C221.671 95.9214 221.595 96.1676 221.595 96.4801V108H218.122ZM236.377 92.7727L231.689 110.188H228.728L233.415 92.7727H236.377ZM241.968 93.4545H246.322L250.015 102.46H250.185L253.879 93.4545H258.232V108H254.809V99.0653H254.688L251.194 107.908H249.006L245.512 99.0156H245.391V108H241.968V93.4545ZM265.517 108.206C264.372 108.206 263.387 107.972 262.563 107.503C261.744 107.029 261.112 106.371 260.667 105.528C260.226 104.681 260.006 103.698 260.006 102.581C260.006 101.459 260.226 100.476 260.667 99.6335C261.112 98.786 261.744 98.1278 262.563 97.6591C263.387 97.1856 264.372 96.9489 265.517 96.9489C266.663 96.9489 267.646 97.1856 268.465 97.6591C269.289 98.1278 269.921 98.786 270.361 99.6335C270.806 100.476 271.029 101.459 271.029 102.581C271.029 103.698 270.806 104.681 270.361 105.528C269.921 106.371 269.289 107.029 268.465 107.503C267.646 107.972 266.663 108.206 265.517 108.206ZM265.539 105.585C265.955 105.585 266.308 105.457 266.597 105.202C266.886 104.946 267.106 104.591 267.257 104.136C267.414 103.682 267.492 103.156 267.492 102.56C267.492 101.954 267.414 101.423 267.257 100.969C267.106 100.514 266.886 100.159 266.597 99.9034C266.308 99.6477 265.955 99.5199 265.539 99.5199C265.108 99.5199 264.743 99.6477 264.445 99.9034C264.151 100.159 263.926 100.514 263.77 100.969C263.619 101.423 263.543 101.954 263.543 102.56C263.543 103.156 263.619 103.682 263.77 104.136C263.926 104.591 264.151 104.946 264.445 105.202C264.743 105.457 265.108 105.585 265.539 105.585ZM276.281 101.778V108H272.808V97.0909H276.11V99.0938H276.231C276.473 98.4261 276.885 97.9029 277.467 97.5241C278.049 97.1406 278.743 96.9489 279.548 96.9489C280.315 96.9489 280.98 97.1217 281.544 97.4673C282.112 97.8082 282.552 98.2865 282.865 98.902C283.182 99.5128 283.338 100.228 283.333 101.047V108H279.86V101.729C279.865 101.123 279.711 100.649 279.399 100.308C279.091 99.9673 278.663 99.7969 278.113 99.7969C277.749 99.7969 277.427 99.8774 277.147 100.038C276.873 100.195 276.66 100.42 276.508 100.713C276.361 101.007 276.286 101.362 276.281 101.778ZM291.641 97.0909V99.6477H284.759V97.0909H291.641ZM286.201 94.4773H289.674V104.57C289.674 104.783 289.707 104.955 289.773 105.088C289.844 105.216 289.946 105.308 290.079 105.365C290.211 105.417 290.37 105.443 290.555 105.443C290.687 105.443 290.827 105.431 290.974 105.408C291.125 105.379 291.239 105.356 291.315 105.337L291.84 107.844C291.674 107.891 291.44 107.95 291.137 108.021C290.839 108.092 290.481 108.137 290.065 108.156C289.25 108.194 288.552 108.099 287.969 107.872C287.392 107.64 286.949 107.28 286.641 106.793C286.338 106.305 286.192 105.692 286.201 104.953V94.4773ZM297.121 101.778V108H293.648V93.4545H297.007V99.0938H297.128C297.374 98.4214 297.777 97.8958 298.335 97.517C298.899 97.1383 299.588 96.9489 300.402 96.9489C301.169 96.9489 301.837 97.1193 302.405 97.4602C302.973 97.7964 303.413 98.2723 303.726 98.8878C304.043 99.5033 304.199 100.223 304.195 101.047V108H300.722V101.729C300.726 101.123 300.575 100.649 300.267 100.308C299.959 99.9673 299.526 99.7969 298.967 99.7969C298.603 99.7969 298.281 99.8774 298.001 100.038C297.727 100.195 297.511 100.42 297.355 100.713C297.204 101.007 297.125 101.362 297.121 101.778Z" fill="white"/>
<path d="M165.179 15.0994C165.061 14.7159 164.897 14.3726 164.689 14.0696C164.485 13.7618 164.239 13.4991 163.95 13.2812C163.666 13.0634 163.339 12.9001 162.97 12.7912C162.601 12.6776 162.198 12.6207 161.763 12.6207C160.982 12.6207 160.286 12.8172 159.675 13.2102C159.064 13.6032 158.583 14.1809 158.233 14.9432C157.887 15.7008 157.714 16.6241 157.714 17.7131C157.714 18.8116 157.887 19.742 158.233 20.5043C158.579 21.2666 159.059 21.8466 159.675 22.2443C160.29 22.6373 161.005 22.8338 161.82 22.8338C162.558 22.8338 163.197 22.6918 163.737 22.4077C164.282 22.1236 164.701 21.7211 164.994 21.2003C165.288 20.6747 165.435 20.0592 165.435 19.3537L166.031 19.446H162.082V17.3864H167.984V19.1335C167.984 20.3788 167.719 21.456 167.189 22.3651C166.659 23.2741 165.929 23.9749 165.001 24.4673C164.073 24.955 163.008 25.1989 161.805 25.1989C160.465 25.1989 159.289 24.8982 158.276 24.2969C157.267 23.6908 156.479 22.8314 155.911 21.7188C155.347 20.6013 155.065 19.2756 155.065 17.7415C155.065 16.5672 155.231 15.5185 155.562 14.5952C155.899 13.6719 156.367 12.8883 156.969 12.2443C157.57 11.5956 158.276 11.1032 159.085 10.767C159.895 10.4261 160.776 10.2557 161.727 10.2557C162.532 10.2557 163.283 10.3741 163.979 10.6108C164.675 10.8428 165.293 11.1742 165.832 11.6051C166.377 12.036 166.824 12.5473 167.175 13.1392C167.525 13.7311 167.755 14.3845 167.864 15.0994H165.179ZM175.177 25.2131C174.112 25.2131 173.189 24.9787 172.407 24.5099C171.626 24.0412 171.02 23.3854 170.589 22.5426C170.163 21.6998 169.95 20.715 169.95 19.5881C169.95 18.4612 170.163 17.474 170.589 16.6264C171.02 15.7789 171.626 15.1207 172.407 14.652C173.189 14.1832 174.112 13.9489 175.177 13.9489C176.243 13.9489 177.166 14.1832 177.947 14.652C178.728 15.1207 179.332 15.7789 179.758 16.6264C180.189 17.474 180.404 18.4612 180.404 19.5881C180.404 20.715 180.189 21.6998 179.758 22.5426C179.332 23.3854 178.728 24.0412 177.947 24.5099C177.166 24.9787 176.243 25.2131 175.177 25.2131ZM175.191 23.1534C175.769 23.1534 176.252 22.9948 176.64 22.6776C177.029 22.3556 177.317 21.9247 177.507 21.3849C177.701 20.8452 177.798 20.2438 177.798 19.581C177.798 18.9134 177.701 18.3097 177.507 17.7699C177.317 17.2254 177.029 16.7921 176.64 16.4702C176.252 16.1482 175.769 15.9872 175.191 15.9872C174.6 15.9872 174.107 16.1482 173.714 16.4702C173.326 16.7921 173.035 17.2254 172.841 17.7699C172.651 18.3097 172.556 18.9134 172.556 19.581C172.556 20.2438 172.651 20.8452 172.841 21.3849C173.035 21.9247 173.326 22.3556 173.714 22.6776C174.107 22.9948 174.6 23.1534 175.191 23.1534ZM185.158 10.4545V25H182.587V10.4545H185.158ZM191.85 25.1918C190.993 25.1918 190.226 24.9716 189.549 24.5312C188.872 24.0909 188.337 23.4517 187.944 22.6136C187.551 21.7756 187.354 20.7576 187.354 19.5597C187.354 18.3475 187.553 17.3248 187.951 16.4915C188.353 15.6534 188.895 15.0213 189.577 14.5952C190.259 14.1643 191.019 13.9489 191.857 13.9489C192.496 13.9489 193.022 14.0578 193.434 14.2756C193.846 14.4886 194.172 14.7467 194.414 15.0497C194.655 15.348 194.842 15.6297 194.975 15.8949H195.081V10.4545H197.659V25H195.131V23.2812H194.975C194.842 23.5464 194.65 23.8281 194.4 24.1264C194.149 24.42 193.817 24.6709 193.405 24.8793C192.993 25.0876 192.475 25.1918 191.85 25.1918ZM192.567 23.0824C193.112 23.0824 193.576 22.9356 193.959 22.642C194.343 22.3437 194.634 21.9295 194.833 21.3991C195.032 20.8688 195.131 20.2509 195.131 19.5455C195.131 18.84 195.032 18.2268 194.833 17.706C194.639 17.1851 194.35 16.7803 193.966 16.4915C193.587 16.2027 193.121 16.0582 192.567 16.0582C191.994 16.0582 191.516 16.2074 191.132 16.5057C190.749 16.804 190.46 17.2159 190.266 17.7415C190.072 18.267 189.975 18.8684 189.975 19.5455C189.975 20.2273 190.072 20.8357 190.266 21.3707C190.465 21.901 190.756 22.3201 191.14 22.6278C191.528 22.9309 192.004 23.0824 192.567 23.0824ZM205.474 10.4545H208.698L213.016 20.9943H213.187L217.505 10.4545H220.729V25H218.201V15.0071H218.066L214.046 24.9574H212.157L208.137 14.9858H208.002V25H205.474V10.4545ZM228.315 25.2131C227.221 25.2131 226.276 24.9858 225.481 24.5312C224.69 24.072 224.082 23.4233 223.656 22.5852C223.229 21.7424 223.016 20.7505 223.016 19.6094C223.016 18.4872 223.229 17.5024 223.656 16.6548C224.086 15.8026 224.688 15.1397 225.46 14.6662C226.231 14.188 227.138 13.9489 228.18 13.9489C228.852 13.9489 229.487 14.0578 230.083 14.2756C230.684 14.4886 231.215 14.8201 231.674 15.2699C232.138 15.7197 232.503 16.2926 232.768 16.9886C233.033 17.6799 233.165 18.5038 233.165 19.4602V20.2486H224.224V18.5156H230.701C230.696 18.0232 230.59 17.5852 230.381 17.2017C230.173 16.8134 229.882 16.508 229.508 16.2855C229.138 16.063 228.708 15.9517 228.215 15.9517C227.69 15.9517 227.228 16.0795 226.83 16.3352C226.433 16.5862 226.122 16.9176 225.9 17.3295C225.682 17.7367 225.571 18.1842 225.566 18.6719V20.1847C225.566 20.8191 225.682 21.3636 225.914 21.8182C226.146 22.268 226.47 22.6136 226.887 22.8551C227.304 23.0919 227.791 23.2102 228.35 23.2102C228.724 23.2102 229.063 23.1581 229.366 23.054C229.669 22.9451 229.932 22.7865 230.154 22.5781C230.377 22.3698 230.545 22.1117 230.658 21.804L233.059 22.0739C232.907 22.7083 232.619 23.2623 232.192 23.7358C231.771 24.2045 231.231 24.5691 230.573 24.8295C229.915 25.0852 229.162 25.2131 228.315 25.2131ZM235.341 25V14.0909H237.798V15.9446H237.926C238.153 15.3196 238.529 14.8319 239.055 14.4815C239.581 14.1264 240.208 13.9489 240.937 13.9489C241.676 13.9489 242.298 14.1288 242.805 14.4886C243.316 14.8437 243.676 15.3291 243.885 15.9446H243.998C244.24 15.3385 244.647 14.8556 245.22 14.4957C245.797 14.1312 246.482 13.9489 247.272 13.9489C248.276 13.9489 249.095 14.2661 249.73 14.9006C250.364 15.535 250.681 16.4607 250.681 17.6776V25H248.103V18.0753C248.103 17.3982 247.923 16.9034 247.564 16.5909C247.204 16.2737 246.763 16.1151 246.243 16.1151C245.622 16.1151 245.137 16.3092 244.787 16.6974C244.441 17.081 244.268 17.5805 244.268 18.196V25H241.747V17.9688C241.747 17.4053 241.576 16.9555 241.235 16.6193C240.899 16.2831 240.459 16.1151 239.914 16.1151C239.545 16.1151 239.209 16.2098 238.906 16.3991C238.603 16.5838 238.361 16.8466 238.181 17.1875C238.002 17.5237 237.912 17.9167 237.912 18.3665V25H235.341ZM253.403 25V10.4545H255.974V15.8949H256.081C256.214 15.6297 256.401 15.348 256.642 15.0497C256.884 14.7467 257.21 14.4886 257.622 14.2756C258.034 14.0578 258.56 13.9489 259.199 13.9489C260.042 13.9489 260.802 14.1643 261.479 14.5952C262.161 15.0213 262.7 15.6534 263.098 16.4915C263.5 17.3248 263.702 18.3475 263.702 19.5597C263.702 20.7576 263.505 21.7756 263.112 22.6136C262.719 23.4517 262.184 24.0909 261.507 24.5312C260.83 24.9716 260.063 25.1918 259.206 25.1918C258.581 25.1918 258.063 25.0876 257.651 24.8793C257.239 24.6709 256.907 24.42 256.656 24.1264C256.41 23.8281 256.218 23.5464 256.081 23.2812H255.932V25H253.403ZM255.925 19.5455C255.925 20.2509 256.024 20.8688 256.223 21.3991C256.427 21.9295 256.718 22.3437 257.097 22.642C257.48 22.9356 257.944 23.0824 258.489 23.0824C259.057 23.0824 259.533 22.9309 259.916 22.6278C260.3 22.3201 260.589 21.901 260.783 21.3707C260.982 20.8357 261.081 20.2273 261.081 19.5455C261.081 18.8684 260.984 18.267 260.79 17.7415C260.596 17.2159 260.307 16.804 259.923 16.5057C259.54 16.2074 259.062 16.0582 258.489 16.0582C257.939 16.0582 257.473 16.2027 257.089 16.4915C256.706 16.7803 256.415 17.1851 256.216 17.706C256.022 18.2268 255.925 18.84 255.925 19.5455ZM270.717 25.2131C269.623 25.2131 268.679 24.9858 267.883 24.5312C267.092 24.072 266.484 23.4233 266.058 22.5852C265.632 21.7424 265.419 20.7505 265.419 19.6094C265.419 18.4872 265.632 17.5024 266.058 16.6548C266.489 15.8026 267.09 15.1397 267.862 14.6662C268.634 14.188 269.54 13.9489 270.582 13.9489C271.254 13.9489 271.889 14.0578 272.485 14.2756C273.087 14.4886 273.617 14.8201 274.076 15.2699C274.54 15.7197 274.905 16.2926 275.17 16.9886C275.435 17.6799 275.568 18.5038 275.568 19.4602V20.2486H266.626V18.5156H273.103C273.099 18.0232 272.992 17.5852 272.784 17.2017C272.575 16.8134 272.284 16.508 271.91 16.2855C271.541 16.063 271.11 15.9517 270.618 15.9517C270.092 15.9517 269.63 16.0795 269.233 16.3352C268.835 16.5862 268.525 16.9176 268.302 17.3295C268.084 17.7367 267.973 18.1842 267.968 18.6719V20.1847C267.968 20.8191 268.084 21.3636 268.316 21.8182C268.548 22.268 268.873 22.6136 269.289 22.8551C269.706 23.0919 270.194 23.2102 270.752 23.2102C271.127 23.2102 271.465 23.1581 271.768 23.054C272.071 22.9451 272.334 22.7865 272.556 22.5781C272.779 22.3698 272.947 22.1117 273.061 21.804L275.461 22.0739C275.31 22.7083 275.021 23.2623 274.595 23.7358C274.173 24.2045 273.634 24.5691 272.975 24.8295C272.317 25.0852 271.565 25.2131 270.717 25.2131ZM277.743 25V14.0909H280.236V15.9091H280.349C280.548 15.2794 280.889 14.794 281.372 14.4531C281.86 14.1075 282.416 13.9347 283.041 13.9347C283.183 13.9347 283.342 13.9418 283.517 13.956C283.697 13.9654 283.846 13.982 283.964 14.0057V16.3707C283.856 16.3329 283.683 16.2997 283.446 16.2713C283.214 16.2382 282.989 16.2216 282.771 16.2216C282.303 16.2216 281.881 16.3234 281.507 16.527C281.138 16.7259 280.847 17.0028 280.634 17.358C280.42 17.7131 280.314 18.1226 280.314 18.5866V25H277.743Z" fill="white"/>
</svg>
