<svg width="130" height="44" viewBox="0 0 130 44" fill="none" xmlns="http://www.w3.org/2000/svg">
<rect width="130" height="44" rx="8" fill="white"/>
<path d="M30.2656 11.3194C28.9871 10.4405 27.3188 10 25.2607 10H17.2928C16.6618 10 16.3133 10.3155 16.247 10.946L13.0102 31.2643C12.9765 31.4639 13.0264 31.6464 13.1595 31.8123C13.2918 31.9785 13.4581 32.0612 13.6574 32.0612H17.4421C18.1059 32.0612 18.4708 31.7464 18.5377 31.1152L19.434 25.6375C19.4667 25.372 19.5835 25.1562 19.7827 24.99C19.9818 24.824 20.2308 24.7155 20.5296 24.6657C20.8284 24.6164 21.1102 24.5916 21.3763 24.5916C21.6416 24.5916 21.9568 24.6084 22.3226 24.6414C22.6875 24.6746 22.9201 24.6907 23.0198 24.6907C25.8747 24.6907 28.1157 23.8862 29.7427 22.2756C31.369 20.6656 32.183 18.4332 32.183 15.5775C32.183 13.6189 31.5434 12.1997 30.2656 11.3194ZM26.1572 17.4202C25.9907 18.5824 25.5596 19.3456 24.8625 19.7109C24.1652 20.0767 23.1692 20.2586 21.8746 20.2586L20.2312 20.3084L21.0779 14.9798C21.144 14.6149 21.3597 14.4322 21.7252 14.4322H22.6716C23.999 14.4322 24.9623 14.6236 25.5599 15.0047C26.1572 15.3868 26.3565 16.1922 26.1572 17.4202Z" fill="#003087"/>
<path d="M114.352 10H110.667C110.301 10 110.085 10.1827 110.02 10.548L106.782 31.2645L106.732 31.364C106.732 31.5309 106.799 31.6878 106.932 31.8373C107.064 31.9864 107.231 32.0612 107.43 32.0612H110.717C111.347 32.0612 111.695 31.7464 111.763 31.1152L115 10.7466V10.6972C114.999 10.2324 114.783 10 114.352 10Z" fill="#009CDE"/>
<path d="M69.8313 18.0175C69.8313 17.8519 69.7645 17.6939 69.6325 17.5447C69.4993 17.3954 69.3497 17.3203 69.1842 17.3203H65.3496C64.9837 17.3203 64.685 17.4871 64.4532 17.8182L59.1745 25.5873L56.9833 18.1173C56.8167 17.5865 56.4518 17.3203 55.8878 17.3203H52.1523C51.9859 17.3203 51.8366 17.3952 51.7046 17.5447C51.5714 17.6939 51.5054 17.852 51.5054 18.0175C51.5054 18.0844 51.8291 19.0633 52.4764 20.9557C53.1236 22.8485 53.8207 24.8903 54.5678 27.0816C55.3149 29.2725 55.7047 30.4351 55.7381 30.5671C53.0155 34.2857 51.6547 36.2778 51.6547 36.543C51.6547 36.9749 51.8702 37.1905 52.3021 37.1905H56.1367C56.5017 37.1905 56.8004 37.0249 57.0331 36.6927L69.7321 18.366C69.7981 18.3001 69.8313 18.1844 69.8313 18.0175Z" fill="#003087"/>
<path d="M105.538 17.3203H101.753C101.288 17.3203 101.006 17.8682 100.907 18.9639C100.042 17.6364 98.4664 16.9717 96.1752 16.9717C93.7848 16.9717 91.7509 17.8682 90.0748 19.661C88.398 21.4538 87.5601 23.5625 87.5601 25.9858C87.5601 27.945 88.1325 29.5052 89.2778 30.6667C90.4233 31.8295 91.9587 32.4098 93.8848 32.4098C94.8473 32.4098 95.8266 32.2102 96.8226 31.8122C97.8187 31.4138 98.5982 30.8829 99.1635 30.2186C99.1635 30.2519 99.1297 30.4011 99.0638 30.6666C98.9968 30.9327 98.9641 31.1322 98.9641 31.2642C98.9641 31.796 99.1793 32.0609 99.6116 32.0609H103.048C103.678 32.0609 104.044 31.7461 104.143 31.1149L106.185 18.1171C106.218 17.9179 106.168 17.7355 106.036 17.5693C105.902 17.4035 105.737 17.3203 105.538 17.3203ZM99.0388 27.1311C98.1922 27.9611 97.1715 28.3759 95.9763 28.3759C95.013 28.3759 94.2335 28.1107 93.6356 27.5792C93.0379 27.0489 92.7391 26.3184 92.7391 25.388C92.7391 24.1604 93.154 23.1221 93.9842 22.2757C94.8133 21.429 95.8434 21.0057 97.0719 21.0057C98.0006 21.0057 98.7726 21.2797 99.3874 21.8272C100.001 22.3752 100.309 23.1307 100.309 24.0936C100.309 25.2886 99.8853 26.3015 99.0388 27.1311Z" fill="#009CDE"/>
<path d="M48.9658 17.3203H45.1809C44.7154 17.3203 44.4338 17.8682 44.3341 18.9639C43.4377 17.6364 41.8606 16.9717 39.6031 16.9717C37.2127 16.9717 35.1789 17.8682 33.5026 19.661C31.8257 21.4538 30.9878 23.5625 30.9878 25.9858C30.9878 27.945 31.5606 29.5052 32.706 30.6667C33.8514 31.8295 35.3865 32.4098 37.3124 32.4098C38.2415 32.4098 39.2049 32.2102 40.2007 31.8122C41.1966 31.4138 41.9935 30.8829 42.5911 30.2186C42.4579 30.617 42.3918 30.9657 42.3918 31.2642C42.3918 31.796 42.6075 32.0609 43.0392 32.0609H46.4754C47.1057 32.0609 47.4713 31.7461 47.571 31.1149L49.6127 18.1171C49.6454 17.9179 49.5958 17.7355 49.4634 17.5693C49.3305 17.4035 49.1646 17.3203 48.9658 17.3203ZM42.4667 27.1557C41.62 27.9701 40.582 28.3759 39.3544 28.3759C38.391 28.3759 37.6191 28.1107 37.0385 27.5792C36.4572 27.0489 36.167 26.3184 36.167 25.388C36.167 24.1604 36.5817 23.1221 37.4121 22.2757C38.2415 21.429 39.2708 21.0057 40.4996 21.0057C41.4288 21.0057 42.2007 21.2797 42.8155 21.8272C43.4292 22.3752 43.7367 23.1307 43.7367 24.0936C43.7367 25.322 43.3134 26.3432 42.4667 27.1557Z" fill="#003087"/>
<path d="M86.8378 11.3194C85.5595 10.4405 83.8915 10 81.8331 10H73.915C73.2506 10 72.8852 10.3155 72.8193 10.946L69.5824 31.2643C69.5488 31.4639 69.5986 31.6464 69.7318 31.8123C69.8636 31.9785 70.0304 32.0612 70.2297 32.0612H74.313C74.7114 32.0612 74.9768 31.8456 75.1099 31.414L76.0064 25.6375C76.0393 25.372 76.1556 25.1562 76.355 24.99C76.5543 24.824 76.803 24.7155 77.1021 24.6657C77.4007 24.6164 77.6825 24.5916 77.9487 24.5916C78.214 24.5916 78.5293 24.6084 78.8946 24.6414C79.2597 24.6746 79.4928 24.6907 79.5917 24.6907C82.4472 24.6907 84.6878 23.8862 86.3148 22.2756C87.9416 20.6656 88.755 18.4332 88.755 15.5775C88.7552 13.6189 88.1157 12.1997 86.8378 11.3194ZM81.7334 19.5117C81.0029 20.0096 79.9073 20.2585 78.4468 20.2585L76.8531 20.3082L77.6998 14.9796C77.7656 14.6147 77.9813 14.4321 78.3471 14.4321H79.2432C79.9733 14.4321 80.5544 14.4653 80.9866 14.5315C81.4176 14.5983 81.8331 14.8053 82.2315 15.1539C82.6301 15.5025 82.8291 16.009 82.8291 16.6729C82.8291 18.0675 82.4635 19.0133 81.7334 19.5117Z" fill="#009CDE"/>
</svg>
