<svg width="59" height="19" viewBox="0 0 59 19" fill="none" xmlns="http://www.w3.org/2000/svg">
<path d="M20.8413 17.8681L23.8251 0.357966H28.5978L25.6117 17.8681H20.8413ZM42.855 0.735431C41.9096 0.380685 40.4279 0 38.5776 0C33.8614 0 30.5396 2.3749 30.5112 5.77862C30.4846 8.29466 32.8828 9.69835 34.6932 10.5358C36.5511 11.3943 37.1755 11.9416 37.1665 12.7079C37.1546 13.8817 35.683 14.4176 34.311 14.4176C32.4009 14.4176 31.386 14.1523 29.8186 13.4988L29.2034 13.2205L28.5337 17.1402C29.6485 17.6292 31.7097 18.0525 33.8502 18.0745C38.8673 18.0745 42.1242 15.7267 42.1612 12.0919C42.179 10.0999 40.9076 8.5842 38.1539 7.33436C36.4858 6.52433 35.4641 5.98381 35.4749 5.16358C35.4749 4.43575 36.3397 3.65748 38.2084 3.65748C39.7689 3.63324 40.8997 3.97358 41.7806 4.32833L42.2082 4.53039L42.855 0.735431ZM55.1369 0.357697H51.449C50.3066 0.357697 49.4515 0.669509 48.9499 1.80978L41.8617 17.8565H46.8735C46.8735 17.8565 47.6927 15.699 47.878 15.2252C48.4257 15.2252 53.2945 15.2327 53.9905 15.2327C54.1332 15.8458 54.5712 17.8565 54.5712 17.8565H58.9999L55.1369 0.35716V0.357697ZM49.2856 11.6647C49.6804 10.6558 51.1872 6.76977 51.1872 6.76977C51.1591 6.81638 51.5791 5.75598 51.82 5.09855L52.1425 6.60823C52.1425 6.60823 53.0564 10.788 53.2474 11.6644H49.2856V11.6647ZM16.7896 0.357697L12.117 12.2988L11.6192 9.87223C10.7493 7.07488 8.03911 4.04415 5.00928 2.52687L9.28188 17.8401L14.3316 17.8345L21.8455 0.357518L16.7896 0.357429" fill="#4F9CE3"/>
<path d="M7.75709 0.357422H0.0610029L0 0.721738C5.98747 2.17113 9.94916 5.67378 11.5941 9.88287L9.92062 1.83624C9.6318 0.727462 8.79386 0.396509 7.75727 0.357868" fill="#F2AE14"/>
</svg>
